<svg width="246" height="67" viewBox="0 0 246 67" fill="none" xmlns="http://www.w3.org/2000/svg">
<g id="Blender Logotype">
<path d="M31.2768 36.2224C31.5518 31.3165 33.9542 26.9943 37.5785 23.9304C41.1327 20.921 45.9167 19.0816 51.1365 19.0816C56.3512 19.0816 61.1352 20.921 64.692 23.9304C68.3137 26.9943 70.716 31.3165 70.9936 36.2172C71.2686 41.258 69.2425 45.9408 65.6882 49.4121C62.0639 52.943 56.909 55.1586 51.1365 55.1586C45.3641 55.1586 40.1988 52.943 36.577 49.4121C33.0202 45.9408 30.9992 41.2581 31.2768 36.2224Z" fill="white"/>
<path d="M40.9469 36.6634C41.0881 34.1462 42.3207 31.9284 44.1804 30.3563C46.0041 28.8122 48.4588 27.8684 51.1371 27.8684C53.8128 27.8684 56.2675 28.8122 58.0925 30.3563C59.9508 31.9284 61.1835 34.1462 61.3259 36.6608C61.467 39.2472 60.4274 41.65 58.6037 43.4311C56.744 45.2428 54.099 46.3797 51.1371 46.3797C48.1752 46.3797 45.5249 45.2428 43.6665 43.4311C41.8415 41.65 40.8045 39.2473 40.9469 36.6634Z" fill="#265787"/>
<path d="M24.7198 41.7493C24.7371 42.7344 25.0513 44.6487 25.5225 46.1436C26.5129 49.3078 28.1928 52.235 30.5304 54.8148C32.9292 57.4665 35.8831 59.5964 39.2949 61.1086C42.8811 62.6967 46.7667 63.5061 50.8029 63.4994C54.8323 63.4941 58.7181 62.6687 62.3043 61.0687C65.7161 59.5418 68.6672 57.4026 71.062 54.7496C73.3982 52.1591 75.0755 49.2266 76.0686 46.0624C76.5678 44.4636 76.8833 42.8409 77.0097 41.2129C77.1335 39.6088 77.0816 38.0021 76.854 36.3967C76.4094 33.2684 75.3271 30.3332 73.6605 27.6575C72.1363 25.1988 70.1715 23.0463 67.8353 21.2346L67.8406 21.2306L44.2641 3.12795C44.2428 3.11197 44.2255 3.09469 44.2029 3.08005C42.6561 1.89264 40.055 1.89664 38.3537 3.08671C36.6338 4.29009 36.4368 6.28017 37.9677 7.53547L37.961 7.54213L47.7944 15.5385L17.823 15.5705H17.7831C15.3058 15.5731 12.9243 17.1985 12.453 19.2525C11.9685 21.3451 13.6511 23.0809 16.2269 23.0902L16.2229 23.0996L31.4143 23.0703L4.30623 43.8779C4.27162 43.9032 4.23435 43.9298 4.2024 43.9551C1.64521 45.9133 0.81857 49.1693 2.42929 51.23C4.06398 53.3252 7.53967 53.3292 10.1235 51.2419L24.9182 39.1336C24.9182 39.1336 24.7025 40.7682 24.7198 41.7493ZM62.7369 47.2231C59.6885 50.3287 55.4207 52.0899 50.8029 52.0992C46.1784 52.1072 41.9106 50.362 38.8622 47.2617C37.3726 45.7509 36.2784 44.0123 35.6035 42.1607C34.9419 40.341 34.685 38.4094 34.8554 36.4606C35.0165 34.5557 35.5836 32.7386 36.4888 31.0946C37.378 29.4786 38.6027 28.0183 40.1149 26.7829C43.0781 24.3682 46.8506 23.061 50.7962 23.0556C54.7458 23.0503 58.5157 24.3456 61.4816 26.7523C62.9911 27.9823 64.2145 29.4373 65.1037 31.0507C66.0129 32.6934 66.576 34.5037 66.7437 36.414C66.9114 38.3602 66.6545 40.2891 65.9929 42.1101C65.3167 43.9671 64.2264 45.7056 62.7369 47.2231Z" fill="#EA7600"/>
<path d="M202.467 36.6221C202.695 34.0823 204.658 32.4715 207.657 32.4715C210.661 32.4715 212.623 34.0823 212.85 36.6221H202.467ZM212.543 42.8933C211.775 44.7756 209.964 45.8898 207.506 45.8898C204.427 45.8898 202.354 43.9676 202.27 40.9312H219.971V40.0379C219.971 32.4316 215.506 28.1572 207.506 28.1572C199.737 28.1572 195.039 32.4715 195.039 39.2379C195.039 46.0455 199.81 50.3532 207.506 50.3532C212.124 50.3532 215.704 48.7705 217.911 45.9883L212.543 42.8933Z" fill="#265787"/>
<path d="M123.929 36.634C124.163 34.0941 126.127 32.4834 129.129 32.4834C132.126 32.4834 134.089 34.0941 134.319 36.634H123.929ZM134.011 42.9052C133.242 44.7928 131.433 45.907 128.969 45.907C125.895 45.907 123.817 43.9794 123.736 40.9417H141.433V40.0538C141.433 32.4435 136.969 28.1678 128.969 28.1678C121.196 28.1678 116.508 32.4834 116.508 39.2498C116.508 46.0574 121.276 50.3651 128.969 50.3651C133.585 50.3651 137.169 48.7876 139.38 46.0015L134.011 42.9052Z" fill="#265787"/>
<path d="M114.921 23.5577H108.538V49.6714H114.921V23.5577Z" fill="#265787"/>
<path d="M143.021 30.4958H149.44V32.0506C151.712 29.6252 154.441 28.3992 157.519 28.3992C161.064 28.3992 163.747 29.6252 165.133 31.7125C166.29 33.4363 166.366 35.517 166.366 38.2512V49.6713H159.938V39.637C159.938 35.473 159.1 33.5508 155.445 33.5508C151.751 33.5508 149.44 35.7512 149.44 39.4453V49.6713H143.021V30.4958Z" fill="#265787"/>
<path d="M187.037 39.5614C187.037 43.1356 184.648 45.4798 180.953 45.4798C177.255 45.4798 174.867 43.2155 174.867 39.6027C174.867 35.9366 177.223 33.6736 180.953 33.6736C184.648 33.6736 187.037 35.9765 187.037 39.5614ZM187.037 31.3653C185.414 29.6255 183.066 28.6711 179.802 28.6711C172.76 28.6711 167.952 33.0134 167.952 39.5215C167.952 45.9018 172.726 50.3652 179.686 50.3652C182.877 50.3652 185.22 49.5585 187.037 47.7495V49.6717H193.46V21.902L187.037 23.558V31.3653Z" fill="#265787"/>
<path d="M93.9499 33.6736C97.6825 33.6736 100.029 35.9366 100.029 39.6027C100.029 43.2155 97.6453 45.4798 93.9499 45.4798C90.2572 45.4798 87.8718 43.1356 87.8718 39.5614C87.8718 35.9765 90.2572 33.6736 93.9499 33.6736ZM87.8718 23.558L81.4462 21.902V49.6717H87.8718V47.7495C89.6795 49.5585 92.0264 50.3652 95.2199 50.3652C102.183 50.3652 106.951 45.9018 106.951 39.5215C106.951 33.0134 102.142 28.6711 95.104 28.6711C91.8333 28.6711 89.4865 29.6255 87.8718 31.3653V23.558Z" fill="#265787"/>
<path d="M221.555 49.6715V30.4959H227.978V31.6806C229.902 29.3644 231.937 28.2116 234.252 28.2116C234.711 28.2116 235.289 28.2861 236.057 28.362V33.8291C235.438 33.7479 234.749 33.7479 234.017 33.7479C230.283 33.7479 227.978 36.2106 227.978 40.3985V49.6715H221.555Z" fill="#265787"/>
<path d="M242.9 26.0326C242.9 26.4086 242.742 26.6663 242.426 26.8056L243.212 28.1328H242.369L241.779 27.0114H241.623V28.1328H240.863V25.0936H241.739C242.139 25.0936 242.432 25.171 242.618 25.3259C242.806 25.4807 242.9 25.7163 242.9 26.0326ZM241.623 26.454H241.726C241.872 26.454 241.976 26.423 242.038 26.3611C242.102 26.2969 242.134 26.1918 242.134 26.0459C242.134 25.9021 242.103 25.8003 242.041 25.7406C241.979 25.6809 241.872 25.651 241.719 25.651H241.623V26.454ZM239.393 26.6099C239.393 26.1675 239.504 25.7528 239.725 25.3657C239.946 24.9786 240.25 24.6734 240.637 24.4499C241.025 24.2265 241.441 24.1148 241.888 24.1148C242.331 24.1148 242.745 24.2254 243.132 24.4466C243.52 24.6678 243.825 24.972 244.048 25.3591C244.272 25.7461 244.383 26.1631 244.383 26.6099C244.383 27.0456 244.276 27.4548 244.061 27.8375C243.847 28.2202 243.546 28.5265 243.159 28.7566C242.772 28.9866 242.348 29.1016 241.888 29.1016C241.43 29.1016 241.008 28.9877 240.621 28.7599C240.234 28.5298 239.932 28.2235 239.715 27.8408C239.5 27.4582 239.393 27.0479 239.393 26.6099ZM239.864 26.6099C239.864 26.9727 239.955 27.3111 240.136 27.6252C240.318 27.937 240.566 28.1837 240.88 28.3651C241.194 28.5442 241.53 28.6338 241.888 28.6338C242.251 28.6338 242.588 28.5431 242.9 28.3617C243.214 28.1804 243.461 27.9326 243.64 27.6185C243.821 27.3044 243.912 26.9682 243.912 26.6099C243.912 26.2471 243.821 25.9098 243.64 25.5979C243.459 25.2838 243.211 25.0372 242.897 24.8581C242.583 24.6767 242.247 24.586 241.888 24.586C241.526 24.586 241.187 24.6767 240.873 24.8581C240.561 25.0394 240.314 25.2872 240.133 25.6013C239.954 25.9154 239.864 26.2516 239.864 26.6099Z" fill="#265787"/>
</g>
</svg>
