<svg width="25" height="24" viewBox="0 0 25 24" fill="none" xmlns="http://www.w3.org/2000/svg">
<g id="Bold / Security / Eye">
<g id="Vector">
<path d="M9.89496 12C9.89496 10.7574 10.9023 9.75 12.145 9.75C13.3876 9.75 14.395 10.7574 14.395 12C14.395 13.2426 13.3876 14.25 12.145 14.25C10.9023 14.25 9.89496 13.2426 9.89496 12Z" fill="#0ACF83"/>
<path fill-rule="evenodd" clip-rule="evenodd" d="M2.14496 12C2.14496 13.6394 2.56992 14.1915 3.41985 15.2957C5.11692 17.5004 7.96307 20 12.145 20C16.3268 20 19.173 17.5004 20.8701 15.2957C21.72 14.1915 22.145 13.6394 22.145 12C22.145 10.3606 21.72 9.80853 20.8701 8.70433C19.173 6.49956 16.3268 4 12.145 4C7.96307 4 5.11692 6.49956 3.41985 8.70433C2.56992 9.80853 2.14496 10.3606 2.14496 12ZM12.145 8.25C10.0739 8.25 8.39496 9.92893 8.39496 12C8.39496 14.0711 10.0739 15.75 12.145 15.75C14.216 15.75 15.895 14.0711 15.895 12C15.895 9.92893 14.216 8.25 12.145 8.25Z" fill="#0ACF83"/>
</g>
</g>
</svg>
