<svg width="25" height="24" viewBox="0 0 25 24" fill="none" xmlns="http://www.w3.org/2000/svg">
<g id="Bold / Building, Infrastructure / Buildings">
<path id="Vector" fill-rule="evenodd" clip-rule="evenodd" d="M15.145 2H17.145C19.0306 2 19.9734 2 20.5592 2.58579C21.145 3.17157 21.145 4.11438 21.145 6V21.25H22.145C22.5592 21.25 22.895 21.5858 22.895 22C22.895 22.4142 22.5592 22.75 22.145 22.75H2.14496C1.73074 22.75 1.39496 22.4142 1.39496 22C1.39496 21.5858 1.73074 21.25 2.14496 21.25H3.14496V9C3.14496 7.11438 3.14496 6.17157 3.73074 5.58579C4.31653 5 5.25934 5 7.14496 5H11.145C13.0306 5 13.9734 5 14.5592 5.58579C15.145 6.17157 15.145 7.11438 15.145 9V21.25H16.645V9L16.645 8.91051C16.6451 8.04488 16.6452 7.25121 16.5584 6.60559C16.4628 5.89462 16.2379 5.14317 15.6198 4.52513C15.0018 3.90708 14.2503 3.68219 13.5394 3.5866C12.9028 3.50102 12.1224 3.49991 11.271 3.49999C11.3553 3.11275 11.4959 2.82059 11.7307 2.58579C12.3165 2 13.2593 2 15.145 2ZM5.39496 8C5.39496 7.58579 5.73074 7.25 6.14496 7.25H12.145C12.5592 7.25 12.895 7.58579 12.895 8C12.895 8.41421 12.5592 8.75 12.145 8.75H6.14496C5.73074 8.75 5.39496 8.41421 5.39496 8ZM5.39496 11C5.39496 10.5858 5.73074 10.25 6.14496 10.25H12.145C12.5592 10.25 12.895 10.5858 12.895 11C12.895 11.4142 12.5592 11.75 12.145 11.75H6.14496C5.73074 11.75 5.39496 11.4142 5.39496 11ZM5.39496 14C5.39496 13.5858 5.73074 13.25 6.14496 13.25H12.145C12.5592 13.25 12.895 13.5858 12.895 14C12.895 14.4142 12.5592 14.75 12.145 14.75H6.14496C5.73074 14.75 5.39496 14.4142 5.39496 14ZM9.14496 18.25C9.55917 18.25 9.89496 18.5858 9.89496 19V21.25H8.39496V19C8.39496 18.5858 8.73074 18.25 9.14496 18.25Z" fill="#0ACF83"/>
</g>
</svg>
