<svg width="25" height="24" viewBox="0 0 25 24" fill="none" xmlns="http://www.w3.org/2000/svg">
<g id="Bold / Astronomy / Star Angle">
<g id="Subtract">
<path d="M8.26045 6.07272C8.83294 5.434 9.22493 4.99864 9.54123 4.73536C9.86154 4.46874 9.96615 4.49617 9.99858 4.50557C10.0424 4.51829 10.1564 4.56862 10.314 4.98179C10.4681 5.38557 10.6074 5.97927 10.8078 6.84049L10.9277 7.35637C11.021 7.7593 11.0984 8.09406 11.2916 8.3638C11.4908 8.6418 11.78 8.80592 12.1097 8.99306L12.1737 9.02938L12.5313 9.23309C13.2379 9.63554 13.7141 9.90851 14.0244 10.1571C14.3215 10.3952 14.3726 10.5373 14.377 10.6583C14.3817 10.7856 14.3353 10.9454 14.0497 11.2318C13.7558 11.5265 13.2983 11.8681 12.6262 12.3675L12.2272 12.6639C11.9097 12.8992 11.6428 13.097 11.4706 13.3922C11.3022 13.6808 11.2505 14.0187 11.1865 14.4371L11.1055 14.9635C10.9694 15.8478 10.874 16.4601 10.7496 16.8858C10.6796 17.1254 10.613 17.2591 10.5568 17.3354C10.4485 17.2951 10.3041 17.2363 10.1338 17.1547C9.7286 16.9607 9.17966 16.6391 8.61744 16.1334L8.30493 15.8523L8.29121 15.84C8.13133 15.6961 7.98918 15.5683 7.86049 15.4707C7.72131 15.3652 7.57117 15.2738 7.38743 15.2205C7.06258 15.1263 6.72812 15.189 6.36748 15.2567L6.2896 15.2713L5.88913 15.3456C5.09642 15.4926 4.56508 15.5895 4.18392 15.5966C3.81788 15.6034 3.74093 15.5245 3.69977 15.4671C3.64226 15.3868 3.58862 15.2313 3.67794 14.7933C3.76686 14.3572 3.96696 13.7757 4.2574 12.9362L4.42954 12.4389C4.56829 12.0391 4.67925 11.7194 4.66687 11.3819C4.65441 11.0421 4.51886 10.7358 4.35153 10.3576L4.14388 9.88721C3.7932 9.09255 3.55263 8.54458 3.43289 8.12555C3.31437 7.71083 3.35123 7.5428 3.41084 7.44061C3.46031 7.35582 3.5499 7.26553 3.91076 7.22096C4.2905 7.17406 4.82569 7.19516 5.62497 7.22917L6.0288 7.24635L6.10501 7.24969C6.47185 7.26601 6.80772 7.28095 7.11953 7.14318C7.42284 7.00915 7.65219 6.75244 7.91533 6.4579L7.97014 6.39662L8.26045 6.07272Z" fill="#0ACF83"/>
<path d="M11.7726 6.57447C11.6171 5.90607 11.4854 5.33993 11.3425 4.89543L17.9762 6.81971C18.0201 6.83243 18.134 6.88275 18.2917 7.29592C18.4457 7.69971 18.585 8.29341 18.7854 9.15463L18.9054 9.6705C18.9319 9.78525 18.9572 9.8947 18.9843 9.99847L12.9722 8.33336L12.6686 8.16044C12.2391 7.91582 12.1601 7.85895 12.1046 7.78141C12.0427 7.69505 12.0054 7.57493 11.8836 7.05154L11.7726 6.57447Z" fill="#0ACF83"/>
<path d="M15.1976 9.98737L20.2054 11.3743L20.509 11.5472C21.2156 11.9497 21.6918 12.2227 22.002 12.4713C22.2991 12.7093 22.3502 12.8514 22.3547 12.9724C22.3593 13.0997 22.3129 13.2596 22.0273 13.5459C21.7335 13.8406 21.2759 14.1822 20.6038 14.6816L20.2048 14.978C20.0162 15.1178 19.8455 15.2444 19.7018 15.3859L12.8971 13.412L13.2558 13.1455C13.8864 12.677 14.4051 12.2916 14.7578 11.9379C15.125 11.5696 15.3959 11.1545 15.3764 10.6216C15.3676 10.3825 15.3024 10.1737 15.1976 9.98737Z" fill="#0ACF83"/>
<path d="M12.2293 14.2595L19.2417 16.2937C19.2125 16.435 19.1893 16.5869 19.1642 16.7512L19.0832 17.2777C19.006 17.7785 18.8922 18.2246 18.7713 18.6025C18.5583 19.2682 18.5037 19.3607 18.3437 19.4526C18.2749 19.4921 18.2101 19.5094 18.0745 19.4941C17.9085 19.4755 17.6958 19.4155 17.3327 19.3102L11.5382 17.6293C11.6077 17.4828 11.6628 17.3259 11.7095 17.1663C11.8547 16.6693 11.9591 15.9909 12.088 15.1541L12.1631 14.6659C12.1899 14.4923 12.211 14.3611 12.2293 14.2595Z" fill="#0ACF83"/>
</g>
</g>
</svg>
