<svg width="25" height="24" viewBox="0 0 25 24" fill="none" xmlns="http://www.w3.org/2000/svg">
<g id="Bold / Design, Tools / Ruler Angular">
<path id="Vector" d="M9.10498 2H6.85498C4.96936 2 4.02655 2 3.44077 2.58579C2.85498 3.17157 2.85498 4.11438 2.85498 6V8.25H5.85498C6.26919 8.25 6.60498 8.58579 6.60498 9C6.60498 9.41421 6.26919 9.75 5.85498 9.75H2.85498V11.25H4.85498C5.26919 11.25 5.60498 11.5858 5.60498 12C5.60498 12.4142 5.26919 12.75 4.85498 12.75H2.85498V14.25L5.85498 14.25C6.26919 14.25 6.60498 14.5858 6.60498 15C6.60498 15.4142 6.26919 15.75 5.85498 15.75L2.85498 15.75V17.25H4.85498C5.26919 17.25 5.60498 17.5858 5.60498 18C5.60498 18.4142 5.26919 18.75 4.85498 18.75H2.85506C2.85624 19.9896 2.8756 20.6376 3.19204 21.1111C3.33796 21.3295 3.52546 21.517 3.74384 21.6629C4.24829 22 4.95052 22 6.35498 22C7.75944 22 8.46167 22 8.96612 21.6629C9.1845 21.517 9.372 21.3295 9.51792 21.1111C9.85498 20.6067 9.85498 19.9045 9.85498 18.5V11C9.85498 10.0572 9.85498 9.58579 10.1479 9.29289C10.4408 9 10.9122 9 11.855 9H19.355C20.7594 9 21.4617 9 21.9661 8.66294C22.1845 8.51702 22.372 8.32952 22.5179 8.11114C22.855 7.60669 22.855 6.90446 22.855 5.5C22.855 4.09554 22.855 3.39331 22.5179 2.88886C22.372 2.67048 22.1845 2.48298 21.9661 2.33706C21.4925 2.02062 20.8446 2.00126 19.605 2.00008V4C19.605 4.41421 19.2692 4.75 18.855 4.75C18.4408 4.75 18.105 4.41421 18.105 4V2H16.605V5C16.605 5.41421 16.2692 5.75 15.855 5.75C15.4408 5.75 15.105 5.41421 15.105 5V2H13.605V4C13.605 4.41421 13.2692 4.75 12.855 4.75C12.4408 4.75 12.105 4.41421 12.105 4V2H10.605L10.605 5C10.605 5.41421 10.2692 5.75 9.85498 5.75C9.44077 5.75 9.10498 5.41421 9.10498 5L9.10498 2Z" fill="#0ACF83"/>
</g>
</svg>
