<svg width="25" height="24" viewBox="0 0 25 24" fill="none" xmlns="http://www.w3.org/2000/svg">
<g id="Bold / Users / User Speak">
<g id="Vector">
<path d="M18.9219 1.61424C19.135 1.25906 19.5957 1.14388 19.9509 1.35699L19.565 2.00011C19.9509 1.35699 19.9505 1.35679 19.9509 1.35699L19.9523 1.35783L19.9538 1.35878L19.9575 1.36103L19.9671 1.36695C19.9745 1.37153 19.9837 1.37737 19.9947 1.38448C20.0167 1.39871 20.0458 1.41809 20.081 1.44272C20.1514 1.49194 20.2463 1.56244 20.3576 1.6552C20.5797 1.84029 20.8702 2.11678 21.1595 2.49283C21.7423 3.25057 22.315 4.40746 22.315 6.00011C22.315 7.59277 21.7423 8.74966 21.1595 9.5074C20.8702 9.88345 20.5797 10.1599 20.3576 10.345C20.2463 10.4378 20.1514 10.5083 20.081 10.5575C20.0458 10.5821 20.0167 10.6015 19.9947 10.6157C19.9892 10.6193 19.9842 10.6225 19.9796 10.6254C19.975 10.6284 19.9708 10.631 19.9671 10.6333L19.9575 10.6392L19.9538 10.6414L19.9523 10.6424C19.9519 10.6426 19.9509 10.6432 19.565 10.0001L19.9509 10.6432C19.5957 10.8563 19.135 10.7412 18.9219 10.386C18.7097 10.0323 18.823 9.57398 19.1747 9.3597L19.1802 9.35616C19.1875 9.35145 19.2013 9.34231 19.2208 9.32866C19.2599 9.30132 19.3212 9.25619 19.3974 9.1927C19.5503 9.06529 19.7598 8.86678 19.9705 8.59283C20.3877 8.05057 20.815 7.20746 20.815 6.00011C20.815 4.79277 20.3877 3.94966 19.9705 3.4074C19.7598 3.13345 19.5503 2.93494 19.3974 2.80753C19.3212 2.74403 19.2599 2.69891 19.2208 2.67157C19.2013 2.65792 19.1875 2.64878 19.1802 2.64406L19.1747 2.64053C18.823 2.42625 18.7097 1.96793 18.9219 1.61424Z" fill="#0ACF83"/>
<path d="M10.565 10.0001C12.7741 10.0001 14.565 8.20925 14.565 6.00011C14.565 3.79097 12.7741 2.00011 10.565 2.00011C8.35586 2.00011 6.565 3.79097 6.565 6.00011C6.565 8.20925 8.35586 10.0001 10.565 10.0001Z" fill="#0ACF83"/>
<path d="M2.565 17.5001C2.565 19.9854 2.565 22.0001 10.565 22.0001C18.565 22.0001 18.565 19.9854 18.565 17.5001C18.565 15.0148 14.9833 13.0001 10.565 13.0001C6.14672 13.0001 2.565 15.0148 2.565 17.5001Z" fill="#0ACF83"/>
<path d="M17.9509 3.35699C17.5957 3.14388 17.135 3.25906 16.9219 3.61424L17.1701 4.63774L17.1779 4.64305C17.1896 4.65125 17.2118 4.66747 17.2411 4.6919C17.3003 4.74119 17.3848 4.82095 17.4705 4.9324C17.6377 5.14966 17.815 5.49277 17.815 6.00011C17.815 6.50746 17.6377 6.85057 17.4705 7.06783C17.3848 7.17928 17.3003 7.25904 17.2411 7.30832C17.2118 7.33276 17.1896 7.34897 17.1779 7.35717L17.1701 7.36249C16.822 7.57794 16.7106 8.03382 16.9219 8.38599C17.135 8.74117 17.5957 8.85634 17.9509 8.64323L17.565 8.00011C17.9509 8.64323 17.9505 8.64343 17.9509 8.64323L17.9522 8.64243L17.9537 8.64156L17.9568 8.63963L17.9643 8.63504L17.9835 8.62282C17.9982 8.61333 18.0166 8.60108 18.0381 8.58602C18.081 8.55594 18.137 8.51435 18.2014 8.46065C18.3297 8.35369 18.4952 8.19594 18.6595 7.9824C18.9923 7.54966 19.315 6.89277 19.315 6.00011C19.315 5.10746 18.9923 4.45057 18.6595 4.01783C18.4952 3.80428 18.3297 3.64654 18.2014 3.53957C18.137 3.48588 18.081 3.44428 18.0381 3.4142C18.0166 3.39914 17.9982 3.3869 17.9835 3.3774L17.9643 3.36519L17.9568 3.36059L17.9537 3.35867L17.9522 3.3578C17.9519 3.3576 17.9509 3.35699 17.565 4.00011L17.9509 3.35699Z" fill="#0ACF83"/>
</g>
</g>
</svg>
