<svg width="25" height="24" viewBox="0 0 25 24" fill="none" xmlns="http://www.w3.org/2000/svg">
<g id="Bold / Business, Statistic / Graph Up">
<path id="Vector" fill-rule="evenodd" clip-rule="evenodd" d="M4.02947 3.46447C2.565 4.92893 2.565 7.28595 2.565 12C2.565 16.714 2.565 19.0711 4.02947 20.5355C5.49393 22 7.85096 22 12.565 22C17.279 22 19.6361 22 21.1005 20.5355C22.565 19.0711 22.565 16.714 22.565 12C22.565 7.28595 22.565 4.92893 21.1005 3.46447C19.6361 2 17.279 2 12.565 2C7.85096 2 5.49393 2 4.02947 3.46447ZM14.315 10C14.315 10.4142 14.6508 10.75 15.065 10.75H15.7543L13.7418 12.7626C13.6441 12.8602 13.4859 12.8602 13.3882 12.7626L11.8024 11.1768C11.119 10.4934 10.011 10.4934 9.32757 11.1768L7.03467 13.4697C6.74178 13.7626 6.74178 14.2374 7.03467 14.5303C7.32757 14.8232 7.80244 14.8232 8.09533 14.5303L10.3882 12.2374C10.4859 12.1398 10.6441 12.1398 10.7418 12.2374L12.3276 13.8232C13.011 14.5066 14.119 14.5066 14.8024 13.8232L16.815 11.8107V12.5C16.815 12.9142 17.1508 13.25 17.565 13.25C17.9792 13.25 18.315 12.9142 18.315 12.5V10C18.315 9.58579 17.9792 9.25 17.565 9.25H15.065C14.6508 9.25 14.315 9.58579 14.315 10Z" fill="#0ACF83"/>
</g>
</svg>
