<svg width="159" height="52" viewBox="0 0 159 52" fill="none" xmlns="http://www.w3.org/2000/svg">
<g id="Canva Logotype">
<path id="Element" d="M157.89 35.4735C157.741 35.4797 157.599 35.5336 157.483 35.6271C157.367 35.7206 157.284 35.8488 157.246 35.9929C155.62 40.6315 153.423 43.395 151.615 43.395C150.577 43.395 150.156 42.2366 150.156 40.4186C150.156 35.8734 152.878 26.2378 154.249 21.8433C154.401 21.3867 154.488 20.9112 154.509 20.4305C154.509 19.1526 153.813 18.5241 152.083 18.5241C150.218 18.5241 148.213 19.2513 146.26 22.6796C145.585 19.6669 143.549 18.3475 140.697 18.3475C137.404 18.3475 134.225 20.4668 131.607 23.9003C128.989 27.3338 125.893 28.461 123.597 27.9052C125.264 23.8276 125.883 20.7837 125.883 18.5189C125.883 14.9711 124.132 12.831 121.296 12.831C116.99 12.831 114.507 16.9398 114.507 21.2616C114.507 24.6016 116.024 28.0143 119.353 29.7025C116.559 36.0189 112.486 41.7275 110.938 41.7275C108.938 41.7275 108.341 31.9465 108.466 24.9496C108.539 20.9343 108.871 20.7317 108.871 19.5162C108.871 18.8202 108.419 18.3423 106.601 18.3423C102.368 18.3423 101.059 21.9264 100.856 26.0456C100.793 27.6095 100.549 29.1608 100.129 30.6686C98.3575 36.985 94.7111 41.7743 92.3372 41.7743C91.236 41.7743 90.9348 40.6731 90.9348 39.229C90.9348 34.6839 93.48 29.0064 93.48 24.1652C93.48 20.6019 91.9217 18.3527 88.9765 18.3527C85.5118 18.3527 80.9252 22.477 76.5879 30.2063C78.0163 24.2899 78.6033 18.5605 74.3751 18.5605C73.4588 18.5736 72.5591 18.807 71.7519 19.2409C71.4805 19.3677 71.2536 19.5732 71.1007 19.8308C70.9478 20.0884 70.8761 20.386 70.8948 20.685C71.3 26.9858 65.8199 43.1196 60.6204 43.1196C59.675 43.1196 59.2179 42.0808 59.2179 40.4445C59.2179 35.889 61.9294 26.2794 63.2955 21.8745C63.4575 21.3933 63.5485 20.8911 63.5656 20.3837C63.5656 19.1786 62.8176 18.5605 61.1294 18.5605C59.275 18.5605 57.2596 19.2669 55.3169 22.6848C54.6364 19.6721 52.595 18.3527 49.7485 18.3527C45.0736 18.3527 39.8792 23.2926 37.5625 29.7336C34.4926 38.3304 28.3061 46.6363 19.9743 46.6363C12.4165 46.6363 8.42725 40.3458 8.42725 30.4089C8.42725 16.0568 18.9615 4.33295 26.7738 4.33295C30.5086 4.33295 32.2954 6.712 32.2954 10.3637C32.2954 14.7841 29.8281 16.8359 29.8281 18.5189C29.8281 19.0383 30.254 19.5578 31.1059 19.5578C34.503 19.5578 38.4975 15.5685 38.4975 10.1247C38.4975 4.68099 34.0667 0.670898 26.2492 0.670898C13.3359 0.670898 0.3396 13.6569 0.3396 30.3154C0.3396 43.5612 6.87413 51.5502 18.1771 51.5502C25.8856 51.5502 32.6227 45.5558 36.2535 38.5642C36.6639 44.3611 39.2974 47.3947 43.3127 47.3947C46.8812 47.3947 49.7693 45.2701 51.9769 41.5301C52.8236 45.4415 55.0935 47.3531 58.0076 47.3531C61.3632 47.3531 64.1733 45.2286 66.838 41.2756C66.7965 44.3923 67.5029 47.296 70.1936 47.296C71.461 47.296 72.9778 46.9999 73.2479 45.8935C76.0788 34.1853 83.0757 24.6275 85.195 24.6275C85.8287 24.6275 86.0053 25.2405 86.0053 25.9625C86.0053 29.1415 83.7613 35.6657 83.7613 39.8264C83.7613 44.3248 85.6728 47.3012 89.6258 47.3012C94.0046 47.3012 98.4562 41.9405 101.422 34.1021C102.352 41.4263 104.357 47.3323 107.5 47.3323C111.354 47.3323 118.2 39.2186 122.35 30.6271C124.602 30.9585 126.896 30.4199 128.765 29.1207C127.738 31.6872 127.201 34.4233 127.181 37.1876C127.181 45.161 130.989 47.3947 134.266 47.3947C137.83 47.3947 140.718 45.2701 142.93 41.5301C143.658 44.9013 145.528 47.3427 148.951 47.3427C154.311 47.3427 158.971 41.8626 158.971 37.3642C158.991 36.1799 158.482 35.4735 157.89 35.4735ZM46.5904 42.9794C44.4243 42.9794 43.5776 40.7977 43.5776 37.546C43.5776 31.8997 47.4422 22.4822 51.525 22.4822C53.3119 22.4822 53.9819 24.56 53.9819 27.1572C53.9819 32.8763 50.3095 42.9794 46.5904 42.9794ZM120.766 26.1235C119.563 24.5492 118.941 22.6079 119.005 20.6278C119.005 18.3267 119.847 16.384 120.854 16.384C121.862 16.384 122.174 17.3761 122.174 18.7579C122.169 21.0642 121.343 24.4353 120.766 26.1235ZM137.56 42.9794C135.393 42.9794 134.547 40.4705 134.547 37.546C134.547 32.0971 138.411 22.4822 142.525 22.4822C144.312 22.4822 144.946 24.56 144.946 27.1572C144.946 32.8763 141.336 42.9794 137.56 42.9794Z" fill="url(#paint0_linear_47_1543)"/>
<path id="Element_2" d="M157.89 35.4735C157.741 35.4797 157.599 35.5336 157.483 35.6271C157.367 35.7206 157.284 35.8488 157.246 35.9929C155.62 40.6315 153.423 43.395 151.615 43.395C150.577 43.395 150.156 42.2366 150.156 40.4186C150.156 35.8734 152.878 26.2378 154.249 21.8433C154.401 21.3867 154.488 20.9112 154.509 20.4305C154.509 19.1526 153.813 18.5241 152.083 18.5241C150.218 18.5241 148.213 19.2513 146.26 22.6796C145.585 19.6669 143.549 18.3475 140.697 18.3475C137.404 18.3475 134.225 20.4668 131.607 23.9003C128.989 27.3338 125.893 28.461 123.597 27.9052C125.264 23.8276 125.883 20.7837 125.883 18.5189C125.883 14.9711 124.132 12.831 121.296 12.831C116.99 12.831 114.507 16.9398 114.507 21.2616C114.507 24.6016 116.024 28.0143 119.353 29.7025C116.559 36.0189 112.486 41.7275 110.938 41.7275C108.938 41.7275 108.341 31.9465 108.466 24.9496C108.539 20.9343 108.871 20.7317 108.871 19.5162C108.871 18.8202 108.419 18.3423 106.601 18.3423C102.368 18.3423 101.059 21.9264 100.856 26.0456C100.793 27.6095 100.549 29.1608 100.129 30.6686C98.3575 36.985 94.7111 41.7743 92.3372 41.7743C91.236 41.7743 90.9348 40.6731 90.9348 39.229C90.9348 34.6839 93.48 29.0064 93.48 24.1652C93.48 20.6019 91.9217 18.3527 88.9765 18.3527C85.5118 18.3527 80.9252 22.477 76.5879 30.2063C78.0163 24.2899 78.6033 18.5605 74.3751 18.5605C73.4588 18.5736 72.5591 18.807 71.7519 19.2409C71.4805 19.3677 71.2536 19.5732 71.1007 19.8308C70.9478 20.0884 70.8761 20.386 70.8948 20.685C71.3 26.9858 65.8199 43.1196 60.6204 43.1196C59.675 43.1196 59.2179 42.0808 59.2179 40.4445C59.2179 35.889 61.9294 26.2794 63.2955 21.8745C63.4575 21.3933 63.5485 20.8911 63.5656 20.3837C63.5656 19.1786 62.8176 18.5605 61.1294 18.5605C59.275 18.5605 57.2596 19.2669 55.3169 22.6848C54.6364 19.6721 52.595 18.3527 49.7485 18.3527C45.0736 18.3527 39.8792 23.2926 37.5625 29.7336C34.4926 38.3304 28.3061 46.6363 19.9743 46.6363C12.4165 46.6363 8.42725 40.3458 8.42725 30.4089C8.42725 16.0568 18.9615 4.33295 26.7738 4.33295C30.5086 4.33295 32.2954 6.712 32.2954 10.3637C32.2954 14.7841 29.8281 16.8359 29.8281 18.5189C29.8281 19.0383 30.254 19.5578 31.1059 19.5578C34.503 19.5578 38.4975 15.5685 38.4975 10.1247C38.4975 4.68099 34.0667 0.670898 26.2492 0.670898C13.3359 0.670898 0.3396 13.6569 0.3396 30.3154C0.3396 43.5612 6.87413 51.5502 18.1771 51.5502C25.8856 51.5502 32.6227 45.5558 36.2535 38.5642C36.6639 44.3611 39.2974 47.3947 43.3127 47.3947C46.8812 47.3947 49.7693 45.2701 51.9769 41.5301C52.8236 45.4415 55.0935 47.3531 58.0076 47.3531C61.3632 47.3531 64.1733 45.2286 66.838 41.2756C66.7965 44.3923 67.5029 47.296 70.1936 47.296C71.461 47.296 72.9778 46.9999 73.2479 45.8935C76.0788 34.1853 83.0757 24.6275 85.195 24.6275C85.8287 24.6275 86.0053 25.2405 86.0053 25.9625C86.0053 29.1415 83.7613 35.6657 83.7613 39.8264C83.7613 44.3248 85.6728 47.3012 89.6258 47.3012C94.0046 47.3012 98.4562 41.9405 101.422 34.1021C102.352 41.4263 104.357 47.3323 107.5 47.3323C111.354 47.3323 118.2 39.2186 122.35 30.6271C124.602 30.9585 126.896 30.4199 128.765 29.1207C127.738 31.6872 127.201 34.4233 127.181 37.1876C127.181 45.161 130.989 47.3947 134.266 47.3947C137.83 47.3947 140.718 45.2701 142.93 41.5301C143.658 44.9013 145.528 47.3427 148.951 47.3427C154.311 47.3427 158.971 41.8626 158.971 37.3642C158.991 36.1799 158.482 35.4735 157.89 35.4735ZM46.5904 42.9794C44.4243 42.9794 43.5776 40.7977 43.5776 37.546C43.5776 31.8997 47.4422 22.4822 51.525 22.4822C53.3119 22.4822 53.9819 24.56 53.9819 27.1572C53.9819 32.8763 50.3095 42.9794 46.5904 42.9794ZM120.766 26.1235C119.563 24.5492 118.941 22.6079 119.005 20.6278C119.005 18.3267 119.847 16.384 120.854 16.384C121.862 16.384 122.174 17.3761 122.174 18.7579C122.169 21.0642 121.343 24.4353 120.766 26.1235ZM137.56 42.9794C135.393 42.9794 134.547 40.4705 134.547 37.546C134.547 32.0971 138.411 22.4822 142.525 22.4822C144.312 22.4822 144.946 24.56 144.946 27.1572C144.946 32.8763 141.336 42.9794 137.56 42.9794Z" fill="url(#paint1_radial_47_1543)"/>
<path id="Element_3" d="M157.89 35.4735C157.741 35.4797 157.599 35.5336 157.483 35.6271C157.367 35.7206 157.284 35.8488 157.246 35.9929C155.62 40.6315 153.423 43.395 151.615 43.395C150.577 43.395 150.156 42.2366 150.156 40.4186C150.156 35.8734 152.878 26.2378 154.249 21.8433C154.401 21.3867 154.488 20.9112 154.509 20.4305C154.509 19.1526 153.813 18.5241 152.083 18.5241C150.218 18.5241 148.213 19.2513 146.26 22.6796C145.585 19.6669 143.549 18.3475 140.697 18.3475C137.404 18.3475 134.225 20.4668 131.607 23.9003C128.989 27.3338 125.893 28.461 123.597 27.9052C125.264 23.8276 125.883 20.7837 125.883 18.5189C125.883 14.9711 124.132 12.831 121.296 12.831C116.99 12.831 114.507 16.9398 114.507 21.2616C114.507 24.6016 116.024 28.0143 119.353 29.7025C116.559 36.0189 112.486 41.7275 110.938 41.7275C108.938 41.7275 108.341 31.9465 108.466 24.9496C108.539 20.9343 108.871 20.7317 108.871 19.5162C108.871 18.8202 108.419 18.3423 106.601 18.3423C102.368 18.3423 101.059 21.9264 100.856 26.0456C100.793 27.6095 100.549 29.1608 100.129 30.6686C98.3575 36.985 94.7111 41.7743 92.3372 41.7743C91.236 41.7743 90.9348 40.6731 90.9348 39.229C90.9348 34.6839 93.48 29.0064 93.48 24.1652C93.48 20.6019 91.9217 18.3527 88.9765 18.3527C85.5118 18.3527 80.9252 22.477 76.5879 30.2063C78.0163 24.2899 78.6033 18.5605 74.3751 18.5605C73.4588 18.5736 72.5591 18.807 71.7519 19.2409C71.4805 19.3677 71.2536 19.5732 71.1007 19.8308C70.9478 20.0884 70.8761 20.386 70.8948 20.685C71.3 26.9858 65.8199 43.1196 60.6204 43.1196C59.675 43.1196 59.2179 42.0808 59.2179 40.4445C59.2179 35.889 61.9294 26.2794 63.2955 21.8745C63.4575 21.3933 63.5485 20.8911 63.5656 20.3837C63.5656 19.1786 62.8176 18.5605 61.1294 18.5605C59.275 18.5605 57.2596 19.2669 55.3169 22.6848C54.6364 19.6721 52.595 18.3527 49.7485 18.3527C45.0736 18.3527 39.8792 23.2926 37.5625 29.7336C34.4926 38.3304 28.3061 46.6363 19.9743 46.6363C12.4165 46.6363 8.42725 40.3458 8.42725 30.4089C8.42725 16.0568 18.9615 4.33295 26.7738 4.33295C30.5086 4.33295 32.2954 6.712 32.2954 10.3637C32.2954 14.7841 29.8281 16.8359 29.8281 18.5189C29.8281 19.0383 30.254 19.5578 31.1059 19.5578C34.503 19.5578 38.4975 15.5685 38.4975 10.1247C38.4975 4.68099 34.0667 0.670898 26.2492 0.670898C13.3359 0.670898 0.3396 13.6569 0.3396 30.3154C0.3396 43.5612 6.87413 51.5502 18.1771 51.5502C25.8856 51.5502 32.6227 45.5558 36.2535 38.5642C36.6639 44.3611 39.2974 47.3947 43.3127 47.3947C46.8812 47.3947 49.7693 45.2701 51.9769 41.5301C52.8236 45.4415 55.0935 47.3531 58.0076 47.3531C61.3632 47.3531 64.1733 45.2286 66.838 41.2756C66.7965 44.3923 67.5029 47.296 70.1936 47.296C71.461 47.296 72.9778 46.9999 73.2479 45.8935C76.0788 34.1853 83.0757 24.6275 85.195 24.6275C85.8287 24.6275 86.0053 25.2405 86.0053 25.9625C86.0053 29.1415 83.7613 35.6657 83.7613 39.8264C83.7613 44.3248 85.6728 47.3012 89.6258 47.3012C94.0046 47.3012 98.4562 41.9405 101.422 34.1021C102.352 41.4263 104.357 47.3323 107.5 47.3323C111.354 47.3323 118.2 39.2186 122.35 30.6271C124.602 30.9585 126.896 30.4199 128.765 29.1207C127.738 31.6872 127.201 34.4233 127.181 37.1876C127.181 45.161 130.989 47.3947 134.266 47.3947C137.83 47.3947 140.718 45.2701 142.93 41.5301C143.658 44.9013 145.528 47.3427 148.951 47.3427C154.311 47.3427 158.971 41.8626 158.971 37.3642C158.991 36.1799 158.482 35.4735 157.89 35.4735ZM46.5904 42.9794C44.4243 42.9794 43.5776 40.7977 43.5776 37.546C43.5776 31.8997 47.4422 22.4822 51.525 22.4822C53.3119 22.4822 53.9819 24.56 53.9819 27.1572C53.9819 32.8763 50.3095 42.9794 46.5904 42.9794ZM120.766 26.1235C119.563 24.5492 118.941 22.6079 119.005 20.6278C119.005 18.3267 119.847 16.384 120.854 16.384C121.862 16.384 122.174 17.3761 122.174 18.7579C122.169 21.0642 121.343 24.4353 120.766 26.1235ZM137.56 42.9794C135.393 42.9794 134.547 40.4705 134.547 37.546C134.547 32.0971 138.411 22.4822 142.525 22.4822C144.312 22.4822 144.946 24.56 144.946 27.1572C144.946 32.8763 141.336 42.9794 137.56 42.9794Z" fill="url(#paint2_radial_47_1543)"/>
<path id="Element_4" d="M157.89 35.4735C157.741 35.4797 157.599 35.5336 157.483 35.6271C157.367 35.7206 157.284 35.8488 157.246 35.9929C155.62 40.6315 153.423 43.395 151.615 43.395C150.577 43.395 150.156 42.2366 150.156 40.4186C150.156 35.8734 152.878 26.2378 154.249 21.8433C154.401 21.3867 154.488 20.9112 154.509 20.4305C154.509 19.1526 153.813 18.5241 152.083 18.5241C150.218 18.5241 148.213 19.2513 146.26 22.6796C145.585 19.6669 143.549 18.3475 140.697 18.3475C137.404 18.3475 134.225 20.4668 131.607 23.9003C128.989 27.3338 125.893 28.461 123.597 27.9052C125.264 23.8276 125.883 20.7837 125.883 18.5189C125.883 14.9711 124.132 12.831 121.296 12.831C116.99 12.831 114.507 16.9398 114.507 21.2616C114.507 24.6016 116.024 28.0143 119.353 29.7025C116.559 36.0189 112.486 41.7275 110.938 41.7275C108.938 41.7275 108.341 31.9465 108.466 24.9496C108.539 20.9343 108.871 20.7317 108.871 19.5162C108.871 18.8202 108.419 18.3423 106.601 18.3423C102.368 18.3423 101.059 21.9264 100.856 26.0456C100.793 27.6095 100.549 29.1608 100.129 30.6686C98.3575 36.985 94.7111 41.7743 92.3372 41.7743C91.236 41.7743 90.9348 40.6731 90.9348 39.229C90.9348 34.6839 93.48 29.0064 93.48 24.1652C93.48 20.6019 91.9217 18.3527 88.9765 18.3527C85.5118 18.3527 80.9252 22.477 76.5879 30.2063C78.0163 24.2899 78.6033 18.5605 74.3751 18.5605C73.4588 18.5736 72.5591 18.807 71.7519 19.2409C71.4805 19.3677 71.2536 19.5732 71.1007 19.8308C70.9478 20.0884 70.8761 20.386 70.8948 20.685C71.3 26.9858 65.8199 43.1196 60.6204 43.1196C59.675 43.1196 59.2179 42.0808 59.2179 40.4445C59.2179 35.889 61.9294 26.2794 63.2955 21.8745C63.4575 21.3933 63.5485 20.8911 63.5656 20.3837C63.5656 19.1786 62.8176 18.5605 61.1294 18.5605C59.275 18.5605 57.2596 19.2669 55.3169 22.6848C54.6364 19.6721 52.595 18.3527 49.7485 18.3527C45.0736 18.3527 39.8792 23.2926 37.5625 29.7336C34.4926 38.3304 28.3061 46.6363 19.9743 46.6363C12.4165 46.6363 8.42725 40.3458 8.42725 30.4089C8.42725 16.0568 18.9615 4.33295 26.7738 4.33295C30.5086 4.33295 32.2954 6.712 32.2954 10.3637C32.2954 14.7841 29.8281 16.8359 29.8281 18.5189C29.8281 19.0383 30.254 19.5578 31.1059 19.5578C34.503 19.5578 38.4975 15.5685 38.4975 10.1247C38.4975 4.68099 34.0667 0.670898 26.2492 0.670898C13.3359 0.670898 0.3396 13.6569 0.3396 30.3154C0.3396 43.5612 6.87413 51.5502 18.1771 51.5502C25.8856 51.5502 32.6227 45.5558 36.2535 38.5642C36.6639 44.3611 39.2974 47.3947 43.3127 47.3947C46.8812 47.3947 49.7693 45.2701 51.9769 41.5301C52.8236 45.4415 55.0935 47.3531 58.0076 47.3531C61.3632 47.3531 64.1733 45.2286 66.838 41.2756C66.7965 44.3923 67.5029 47.296 70.1936 47.296C71.461 47.296 72.9778 46.9999 73.2479 45.8935C76.0788 34.1853 83.0757 24.6275 85.195 24.6275C85.8287 24.6275 86.0053 25.2405 86.0053 25.9625C86.0053 29.1415 83.7613 35.6657 83.7613 39.8264C83.7613 44.3248 85.6728 47.3012 89.6258 47.3012C94.0046 47.3012 98.4562 41.9405 101.422 34.1021C102.352 41.4263 104.357 47.3323 107.5 47.3323C111.354 47.3323 118.2 39.2186 122.35 30.6271C124.602 30.9585 126.896 30.4199 128.765 29.1207C127.738 31.6872 127.201 34.4233 127.181 37.1876C127.181 45.161 130.989 47.3947 134.266 47.3947C137.83 47.3947 140.718 45.2701 142.93 41.5301C143.658 44.9013 145.528 47.3427 148.951 47.3427C154.311 47.3427 158.971 41.8626 158.971 37.3642C158.991 36.1799 158.482 35.4735 157.89 35.4735ZM46.5904 42.9794C44.4243 42.9794 43.5776 40.7977 43.5776 37.546C43.5776 31.8997 47.4422 22.4822 51.525 22.4822C53.3119 22.4822 53.9819 24.56 53.9819 27.1572C53.9819 32.8763 50.3095 42.9794 46.5904 42.9794ZM120.766 26.1235C119.563 24.5492 118.941 22.6079 119.005 20.6278C119.005 18.3267 119.847 16.384 120.854 16.384C121.862 16.384 122.174 17.3761 122.174 18.7579C122.169 21.0642 121.343 24.4353 120.766 26.1235ZM137.56 42.9794C135.393 42.9794 134.547 40.4705 134.547 37.546C134.547 32.0971 138.411 22.4822 142.525 22.4822C144.312 22.4822 144.946 24.56 144.946 27.1572C144.946 32.8763 141.336 42.9794 137.56 42.9794Z" fill="url(#paint3_radial_47_1543)"/>
<path id="Element_5" d="M157.89 35.4735C157.741 35.4797 157.599 35.5336 157.483 35.6271C157.367 35.7206 157.284 35.8488 157.246 35.9929C155.62 40.6315 153.423 43.395 151.615 43.395C150.577 43.395 150.156 42.2366 150.156 40.4186C150.156 35.8734 152.878 26.2378 154.249 21.8433C154.401 21.3867 154.488 20.9112 154.509 20.4305C154.509 19.1526 153.813 18.5241 152.083 18.5241C150.218 18.5241 148.213 19.2513 146.26 22.6796C145.585 19.6669 143.549 18.3475 140.697 18.3475C137.404 18.3475 134.225 20.4668 131.607 23.9003C128.989 27.3338 125.893 28.461 123.597 27.9052C125.264 23.8276 125.883 20.7837 125.883 18.5189C125.883 14.9711 124.132 12.831 121.296 12.831C116.99 12.831 114.507 16.9398 114.507 21.2616C114.507 24.6016 116.024 28.0143 119.353 29.7025C116.559 36.0189 112.486 41.7275 110.938 41.7275C108.938 41.7275 108.341 31.9465 108.466 24.9496C108.539 20.9343 108.871 20.7317 108.871 19.5162C108.871 18.8202 108.419 18.3423 106.601 18.3423C102.368 18.3423 101.059 21.9264 100.856 26.0456C100.793 27.6095 100.549 29.1608 100.129 30.6686C98.3575 36.985 94.7111 41.7743 92.3372 41.7743C91.236 41.7743 90.9348 40.6731 90.9348 39.229C90.9348 34.6839 93.48 29.0064 93.48 24.1652C93.48 20.6019 91.9217 18.3527 88.9765 18.3527C85.5118 18.3527 80.9252 22.477 76.5879 30.2063C78.0163 24.2899 78.6033 18.5605 74.3751 18.5605C73.4588 18.5736 72.5591 18.807 71.7519 19.2409C71.4805 19.3677 71.2536 19.5732 71.1007 19.8308C70.9478 20.0884 70.8761 20.386 70.8948 20.685C71.3 26.9858 65.8199 43.1196 60.6204 43.1196C59.675 43.1196 59.2179 42.0808 59.2179 40.4445C59.2179 35.889 61.9294 26.2794 63.2955 21.8745C63.4575 21.3933 63.5485 20.8911 63.5656 20.3837C63.5656 19.1786 62.8176 18.5605 61.1294 18.5605C59.275 18.5605 57.2596 19.2669 55.3169 22.6848C54.6364 19.6721 52.595 18.3527 49.7485 18.3527C45.0736 18.3527 39.8792 23.2926 37.5625 29.7336C34.4926 38.3304 28.3061 46.6363 19.9743 46.6363C12.4165 46.6363 8.42725 40.3458 8.42725 30.4089C8.42725 16.0568 18.9615 4.33295 26.7738 4.33295C30.5086 4.33295 32.2954 6.712 32.2954 10.3637C32.2954 14.7841 29.8281 16.8359 29.8281 18.5189C29.8281 19.0383 30.254 19.5578 31.1059 19.5578C34.503 19.5578 38.4975 15.5685 38.4975 10.1247C38.4975 4.68099 34.0667 0.670898 26.2492 0.670898C13.3359 0.670898 0.3396 13.6569 0.3396 30.3154C0.3396 43.5612 6.87413 51.5502 18.1771 51.5502C25.8856 51.5502 32.6227 45.5558 36.2535 38.5642C36.6639 44.3611 39.2974 47.3947 43.3127 47.3947C46.8812 47.3947 49.7693 45.2701 51.9769 41.5301C52.8236 45.4415 55.0935 47.3531 58.0076 47.3531C61.3632 47.3531 64.1733 45.2286 66.838 41.2756C66.7965 44.3923 67.5029 47.296 70.1936 47.296C71.461 47.296 72.9778 46.9999 73.2479 45.8935C76.0788 34.1853 83.0757 24.6275 85.195 24.6275C85.8287 24.6275 86.0053 25.2405 86.0053 25.9625C86.0053 29.1415 83.7613 35.6657 83.7613 39.8264C83.7613 44.3248 85.6728 47.3012 89.6258 47.3012C94.0046 47.3012 98.4562 41.9405 101.422 34.1021C102.352 41.4263 104.357 47.3323 107.5 47.3323C111.354 47.3323 118.2 39.2186 122.35 30.6271C124.602 30.9585 126.896 30.4199 128.765 29.1207C127.738 31.6872 127.201 34.4233 127.181 37.1876C127.181 45.161 130.989 47.3947 134.266 47.3947C137.83 47.3947 140.718 45.2701 142.93 41.5301C143.658 44.9013 145.528 47.3427 148.951 47.3427C154.311 47.3427 158.971 41.8626 158.971 37.3642C158.991 36.1799 158.482 35.4735 157.89 35.4735ZM46.5904 42.9794C44.4243 42.9794 43.5776 40.7977 43.5776 37.546C43.5776 31.8997 47.4422 22.4822 51.525 22.4822C53.3119 22.4822 53.9819 24.56 53.9819 27.1572C53.9819 32.8763 50.3095 42.9794 46.5904 42.9794ZM120.766 26.1235C119.563 24.5492 118.941 22.6079 119.005 20.6278C119.005 18.3267 119.847 16.384 120.854 16.384C121.862 16.384 122.174 17.3761 122.174 18.7579C122.169 21.0642 121.343 24.4353 120.766 26.1235ZM137.56 42.9794C135.393 42.9794 134.547 40.4705 134.547 37.546C134.547 32.0971 138.411 22.4822 142.525 22.4822C144.312 22.4822 144.946 24.56 144.946 27.1572C144.946 32.8763 141.336 42.9794 137.56 42.9794Z" fill="url(#paint4_radial_47_1543)"/>
<path id="Element_6" d="M157.89 35.4735C157.741 35.4797 157.599 35.5336 157.483 35.6271C157.367 35.7206 157.284 35.8488 157.246 35.9929C155.62 40.6315 153.423 43.395 151.615 43.395C150.577 43.395 150.156 42.2366 150.156 40.4186C150.156 35.8734 152.878 26.2378 154.249 21.8433C154.401 21.3867 154.488 20.9112 154.509 20.4305C154.509 19.1526 153.813 18.5241 152.083 18.5241C150.218 18.5241 148.213 19.2513 146.26 22.6796C145.585 19.6669 143.549 18.3475 140.697 18.3475C137.404 18.3475 134.225 20.4668 131.607 23.9003C128.989 27.3338 125.893 28.461 123.597 27.9052C125.264 23.8276 125.883 20.7837 125.883 18.5189C125.883 14.9711 124.132 12.831 121.296 12.831C116.99 12.831 114.507 16.9398 114.507 21.2616C114.507 24.6016 116.024 28.0143 119.353 29.7025C116.559 36.0189 112.486 41.7275 110.938 41.7275C108.938 41.7275 108.341 31.9465 108.466 24.9496C108.539 20.9343 108.871 20.7317 108.871 19.5162C108.871 18.8202 108.419 18.3423 106.601 18.3423C102.368 18.3423 101.059 21.9264 100.856 26.0456C100.793 27.6095 100.549 29.1608 100.129 30.6686C98.3575 36.985 94.7111 41.7743 92.3372 41.7743C91.236 41.7743 90.9348 40.6731 90.9348 39.229C90.9348 34.6839 93.48 29.0064 93.48 24.1652C93.48 20.6019 91.9217 18.3527 88.9765 18.3527C85.5118 18.3527 80.9252 22.477 76.5879 30.2063C78.0163 24.2899 78.6033 18.5605 74.3751 18.5605C73.4588 18.5736 72.5591 18.807 71.7519 19.2409C71.4805 19.3677 71.2536 19.5732 71.1007 19.8308C70.9478 20.0884 70.8761 20.386 70.8948 20.685C71.3 26.9858 65.8199 43.1196 60.6204 43.1196C59.675 43.1196 59.2179 42.0808 59.2179 40.4445C59.2179 35.889 61.9294 26.2794 63.2955 21.8745C63.4575 21.3933 63.5485 20.8911 63.5656 20.3837C63.5656 19.1786 62.8176 18.5605 61.1294 18.5605C59.275 18.5605 57.2596 19.2669 55.3169 22.6848C54.6364 19.6721 52.595 18.3527 49.7485 18.3527C45.0736 18.3527 39.8792 23.2926 37.5625 29.7336C34.4926 38.3304 28.3061 46.6363 19.9743 46.6363C12.4165 46.6363 8.42725 40.3458 8.42725 30.4089C8.42725 16.0568 18.9615 4.33295 26.7738 4.33295C30.5086 4.33295 32.2954 6.712 32.2954 10.3637C32.2954 14.7841 29.8281 16.8359 29.8281 18.5189C29.8281 19.0383 30.254 19.5578 31.1059 19.5578C34.503 19.5578 38.4975 15.5685 38.4975 10.1247C38.4975 4.68099 34.0667 0.670898 26.2492 0.670898C13.3359 0.670898 0.3396 13.6569 0.3396 30.3154C0.3396 43.5612 6.87413 51.5502 18.1771 51.5502C25.8856 51.5502 32.6227 45.5558 36.2535 38.5642C36.6639 44.3611 39.2974 47.3947 43.3127 47.3947C46.8812 47.3947 49.7693 45.2701 51.9769 41.5301C52.8236 45.4415 55.0935 47.3531 58.0076 47.3531C61.3632 47.3531 64.1733 45.2286 66.838 41.2756C66.7965 44.3923 67.5029 47.296 70.1936 47.296C71.461 47.296 72.9778 46.9999 73.2479 45.8935C76.0788 34.1853 83.0757 24.6275 85.195 24.6275C85.8287 24.6275 86.0053 25.2405 86.0053 25.9625C86.0053 29.1415 83.7613 35.6657 83.7613 39.8264C83.7613 44.3248 85.6728 47.3012 89.6258 47.3012C94.0046 47.3012 98.4562 41.9405 101.422 34.1021C102.352 41.4263 104.357 47.3323 107.5 47.3323C111.354 47.3323 118.2 39.2186 122.35 30.6271C124.602 30.9585 126.896 30.4199 128.765 29.1207C127.738 31.6872 127.201 34.4233 127.181 37.1876C127.181 45.161 130.989 47.3947 134.266 47.3947C137.83 47.3947 140.718 45.2701 142.93 41.5301C143.658 44.9013 145.528 47.3427 148.951 47.3427C154.311 47.3427 158.971 41.8626 158.971 37.3642C158.991 36.1799 158.482 35.4735 157.89 35.4735ZM46.5904 42.9794C44.4243 42.9794 43.5776 40.7977 43.5776 37.546C43.5776 31.8997 47.4422 22.4822 51.525 22.4822C53.3119 22.4822 53.9819 24.56 53.9819 27.1572C53.9819 32.8763 50.3095 42.9794 46.5904 42.9794ZM120.766 26.1235C119.563 24.5492 118.941 22.6079 119.005 20.6278C119.005 18.3267 119.847 16.384 120.854 16.384C121.862 16.384 122.174 17.3761 122.174 18.7579C122.169 21.0642 121.343 24.4353 120.766 26.1235ZM137.56 42.9794C135.393 42.9794 134.547 40.4705 134.547 37.546C134.547 32.0971 138.411 22.4822 142.525 22.4822C144.312 22.4822 144.946 24.56 144.946 27.1572C144.946 32.8763 141.336 42.9794 137.56 42.9794Z" fill="url(#paint5_radial_47_1543)"/>
</g>
<defs>
<linearGradient id="paint0_linear_47_1543" x1="157.267" y1="52.4436" x2="25.2725" y2="21.0282" gradientUnits="userSpaceOnUse">
<stop stop-color="#7D2AE7"/>
<stop offset="0.77" stop-color="#7D2AE7"/>
<stop offset="1" stop-color="#7D2AE7" stop-opacity="0"/>
</linearGradient>
<radialGradient id="paint1_radial_47_1543" cx="0" cy="0" r="1" gradientUnits="userSpaceOnUse" gradientTransform="translate(81.7324 53.7626) rotate(-45.8071) scale(46.9455 31.1995)">
<stop stop-color="#6420FF"/>
<stop offset="1" stop-color="#6420FF" stop-opacity="0"/>
</radialGradient>
<radialGradient id="paint2_radial_47_1543" cx="0" cy="0" r="1" gradientUnits="userSpaceOnUse" gradientTransform="translate(5.48141 36.8103) rotate(5.0883) scale(91.3656 72.8207)">
<stop offset="0.25" stop-color="#00C4CC"/>
<stop offset="1" stop-color="#00C4CC" stop-opacity="0"/>
</radialGradient>
<radialGradient id="paint3_radial_47_1543" cx="0" cy="0" r="1" gradientUnits="userSpaceOnUse" gradientTransform="translate(65.203 49.8578) rotate(-38.8495) scale(58.8772 40.2588)">
<stop stop-color="#6420FF"/>
<stop offset="1" stop-color="#6420FF" stop-opacity="0"/>
</radialGradient>
<radialGradient id="paint4_radial_47_1543" cx="0" cy="0" r="1" gradientUnits="userSpaceOnUse" gradientTransform="translate(8.08961 61.2222) rotate(-34.2675) scale(68.6367 46.9316)">
<stop stop-color="#6420FF"/>
<stop offset="1" stop-color="#6420FF" stop-opacity="0"/>
</radialGradient>
<radialGradient id="paint5_radial_47_1543" cx="0" cy="0" r="1" gradientUnits="userSpaceOnUse" gradientTransform="translate(15.1251 7.46861) rotate(12.4718) scale(135.658 166.38)">
<stop stop-color="#00C4CC"/>
<stop offset="1" stop-color="#00C4CC" stop-opacity="0"/>
</radialGradient>
</defs>
</svg>
