<svg width="209" height="48" viewBox="0 0 209 48" fill="none" xmlns="http://www.w3.org/2000/svg">
<g id="Framer Logotype">
<path d="M59.5288 39.0224V7.61545H78.6939V13.6942H66.7896V22.1369H78.6939V28.1313H66.7896V39.0224H59.5288Z" fill="#000008"/>
<path d="M83.505 39.0221V17.4087H90.3436V21.8833C90.6813 20.3636 91.4412 19.0972 92.5387 18.253C93.6363 17.4087 94.9027 16.9866 96.2535 16.9866C96.9289 16.9866 97.6044 17.071 98.0265 17.1554V23.5719C97.1822 23.4875 96.5068 23.403 96.0002 23.403C92.201 23.403 90.3436 25.8514 90.3436 30.5794V38.9377H83.505V39.0221Z" fill="#000008"/>
<path d="M109.849 39.5288C106.725 39.5288 104.192 38.4313 102.419 36.3206C100.562 34.2099 99.7177 31.4238 99.7177 28.1311C99.7177 24.8385 100.646 22.1368 102.504 19.9417C104.361 17.831 106.894 16.7334 109.933 16.7334C111.453 16.7334 112.804 17.0711 113.986 17.7466C115.168 18.422 116.097 19.2663 116.688 20.4482V17.3244H123.526V38.9378H116.688V35.8984C116.097 36.996 115.168 37.8403 113.902 38.5157C112.72 39.2755 111.369 39.5288 109.849 39.5288ZM111.791 33.8722C113.395 33.8722 114.746 33.3656 115.59 32.2681C116.434 31.1705 116.941 29.8197 116.941 28.2156C116.941 26.6114 116.519 25.2606 115.59 24.163C114.661 23.0655 113.395 22.5589 111.791 22.5589C110.271 22.5589 109.005 23.0655 108.076 24.163C107.147 25.1762 106.641 26.6114 106.641 28.2156C106.641 29.9041 107.147 31.2549 108.076 32.3525C109.005 33.3656 110.271 33.8722 111.791 33.8722Z" fill="#000008"/>
<path d="M129.182 39.0227V17.4093H136.02V20.5332C136.527 19.4356 137.287 18.5069 138.384 17.8315C139.482 17.1561 140.748 16.8184 142.183 16.8184C145.561 16.8184 147.84 18.1692 148.938 20.7864C149.529 19.6045 150.457 18.5913 151.639 17.9159C152.906 17.1561 154.257 16.8184 155.776 16.8184C160.926 16.8184 163.459 19.7733 163.459 25.5988V39.0227H156.536V26.8652C156.536 23.9947 155.439 22.6438 153.328 22.6438C150.88 22.6438 149.698 24.4168 149.698 27.9628V39.1072H142.943V26.7808C142.943 23.9947 141.846 22.5594 139.735 22.5594C138.553 22.5594 137.624 22.9816 137.033 23.7414C136.442 24.5012 136.105 25.9365 136.105 27.8783V39.0227H129.182Z" fill="#000008"/>
<path d="M190.308 27.0341C190.308 27.9628 190.223 28.8915 190.139 30.0734H174.182C174.267 31.5087 174.689 32.6063 175.617 33.3661C176.546 34.126 177.728 34.5481 179.248 34.5481C181.359 34.5481 182.709 33.8727 183.3 32.5218H190.055C189.717 34.6325 188.535 36.4055 186.593 37.6719C184.567 39.0227 182.203 39.6982 179.332 39.6982C175.617 39.6982 172.747 38.685 170.636 36.6588C168.526 34.6325 167.428 31.8464 167.428 28.216C167.428 24.6701 168.526 21.884 170.636 19.8577C172.747 17.8315 175.617 16.8184 179.079 16.8184C182.456 16.8184 185.158 17.7471 187.268 19.6889C189.21 21.5463 190.308 23.9947 190.308 27.0341ZM174.098 25.7677H183.469C183.469 24.3324 183.047 23.2348 182.287 22.475C181.527 21.7151 180.43 21.293 178.91 21.293C177.475 21.293 176.293 21.7151 175.449 22.5594C174.604 23.4037 174.182 24.5012 174.098 25.7677Z" fill="#000008"/>
<path d="M194.191 39.0221V17.4087H201.03V21.8833C201.367 20.3636 202.127 19.0972 203.225 18.253C204.322 17.4087 205.589 16.9866 206.939 16.9866C207.615 16.9866 208.29 17.071 208.712 17.1554V23.5719C207.868 23.4875 207.193 23.403 206.686 23.403C202.887 23.403 201.03 25.8514 201.03 30.5794V38.9377H194.191V39.0221Z" fill="#000008"/>
<path d="M31.6686 0.775879V16.4794H15.965L0.261475 0.775879H31.6686ZM0.261475 16.4794H15.965L31.6686 32.1828H15.965V47.8863L0.261475 32.1828V16.4794Z" fill="#000008"/>
</g>
</svg>
