<svg width="235" height="79" viewBox="0 0 235 79" fill="none" xmlns="http://www.w3.org/2000/svg">
<g id="GitHub Logotype">
<path id="GitHub Logotype_2" fill-rule="evenodd" clip-rule="evenodd" d="M110.234 35.6389C110.471 35.6389 110.663 35.8315 110.663 36.0688V50.0881C110.663 50.1685 110.65 50.3444 110.524 50.4136C110.524 50.4136 107.473 52.5627 102.444 52.5627C96.3696 52.5627 89.1614 50.6922 89.1614 38.1392C89.1614 25.5865 95.4574 22.9751 101.595 22.9751C106.923 22.9751 109.032 24.1552 109.377 24.4018C109.504 24.4927 109.541 24.6263 109.541 24.7375L108.516 29.0806C108.516 29.3178 108.268 29.5839 108.001 29.5022C107.15 29.2389 105.812 28.6921 102.707 28.6921C99.1198 28.6921 95.2988 29.754 95.2988 37.8245C95.2988 45.8935 98.9682 46.8531 101.595 46.8531C103.821 46.8531 104.627 46.5787 104.627 46.5787V40.9939H101.04C100.803 40.9939 100.61 40.801 100.61 40.5638V36.0688C100.61 35.8315 100.803 35.6389 101.04 35.6389H110.234ZM157.615 24.4792V51.5675C157.614 51.8063 157.425 52.0007 157.188 52.0007H151.999C151.762 52.0007 151.571 51.8063 151.571 51.5675C151.571 51.5666 151.585 39.9808 151.585 39.9808H143.515V51.5675C143.515 51.8063 143.325 52.0007 143.088 52.0007H137.912C137.676 52.0007 137.484 51.8063 137.484 51.5675V24.4792C137.484 24.2402 137.676 24.047 137.912 24.047H143.088C143.325 24.047 143.515 24.2402 143.515 24.4792V34.4834H151.585L151.583 24.4792C151.583 24.2402 151.775 24.047 152.012 24.047H157.188C157.425 24.047 157.615 24.2402 157.615 24.4792ZM120.003 28.0338C120.003 29.8958 118.508 31.4064 116.664 31.4064C114.822 31.4064 113.327 29.8958 113.327 28.0338C113.327 26.17 114.822 24.6636 116.664 24.6636C118.508 24.6636 120.003 26.17 120.003 28.0338ZM119.632 33.3493V51.3054C119.632 51.7462 119.507 51.9968 118.997 51.9968H114.348C113.923 51.9968 113.595 51.84 113.595 51.314V33.3993C113.595 33.1618 113.807 32.9179 114.044 32.9179H119.204C119.441 32.9179 119.632 33.112 119.632 33.3493ZM177.289 32.9586C177.525 32.9586 177.718 33.1527 177.718 33.3918L177.719 51.5755C177.719 51.8136 177.527 52.008 177.291 52.008L173.975 52.0226C173.809 52.0226 173.656 51.9048 173.596 51.7881C173.537 51.6711 173.408 50.6845 173.408 50.6845C173.408 50.6845 170.676 52.5566 167.287 52.5566C163.157 52.5566 160.154 51.2386 160.154 45.8515V33.3918C160.154 33.1527 160.347 32.9586 160.583 32.9586H165.796C166.032 32.9586 166.223 33.1527 166.223 33.3918V44.9745C166.223 46.7883 166.715 47.6287 168.567 47.6287C170.419 47.6287 171.724 46.6737 171.724 46.6737V33.3918C171.724 33.1527 171.916 32.9586 172.152 32.9586H177.289ZM191.329 32.3501C194.249 32.3501 198.57 33.4412 198.57 41.7908C198.57 50.1404 195.864 52.5334 191.146 52.5334C187.128 52.5334 185.006 50.522 185.006 50.522C185.006 50.522 184.877 51.6252 184.787 51.7707C184.696 51.9171 184.573 52.0009 184.411 52.0009H180.809C180.572 52.0009 180.381 51.8065 180.381 51.5674V24.4791C180.381 24.2401 180.572 24.0469 180.809 24.0469H186C186.235 24.0469 186.427 24.2401 186.427 24.4791V33.6519C186.427 33.6519 188.412 32.3501 191.329 32.3501ZM189.303 47.6123C191.796 47.6876 192.6 46.769 192.6 42.1158C192.6 37.7028 190.817 37.1442 188.968 37.3098C187.505 37.4404 186.313 38.1712 186.313 38.1712V46.7496C186.313 46.7496 187.521 47.5579 189.303 47.6123ZM134.51 32.9154C134.747 32.9154 134.939 33.108 134.939 33.3471V37.5197C134.939 37.7591 134.747 37.9526 134.51 37.9526H130.627C130.627 37.9526 130.627 44.4214 130.627 45.5687C130.627 46.7165 131.273 47.6032 133.181 47.6032C133.777 47.6032 134.356 47.5111 134.582 47.5111C134.809 47.5111 135.012 47.7047 135.012 47.9437L135.007 51.6086C135.007 51.781 134.918 51.9403 134.764 51.9968C134.509 52.0906 132.97 52.504 131.682 52.504C128.864 52.504 124.689 51.9193 124.689 45.9669V37.9526H121.976C121.739 37.9526 121.548 37.7591 121.548 37.5197V34.1884C121.548 33.992 121.679 33.8273 121.858 33.7757C122.037 33.7237 124.689 33.0837 124.689 33.0837V27.7826C124.689 27.5848 124.8 27.494 125.005 27.494H130.296C130.522 27.494 130.622 27.5912 130.622 27.7853C130.622 27.7865 130.627 32.9154 130.627 32.9154H134.51Z" fill="#24292F"/>
<path id="GitHub Logomark" fill-rule="evenodd" clip-rule="evenodd" d="M48.5662 7.39697C31.3892 7.39697 17.5033 21.3851 17.5033 38.6902C17.5033 52.5232 26.4005 64.2325 38.7432 68.3768C40.2864 68.6883 40.8516 67.7035 40.8516 66.875C40.8516 66.1495 40.8008 63.6628 40.8008 61.0718C32.1598 62.9373 30.3604 57.3415 30.3604 57.3415C28.9718 53.7147 26.9142 52.7826 26.9142 52.7826C24.0861 50.8656 27.1202 50.8656 27.1202 50.8656C30.2574 51.0729 31.9036 54.0778 31.9036 54.0778C34.6803 58.8439 39.1546 57.4972 40.9546 56.6681C41.2115 54.6475 42.0349 53.2487 42.9092 52.4717C36.0174 51.7462 28.7664 49.0522 28.7664 37.032C28.7664 33.6126 29.9999 30.8149 31.9545 28.6392C31.6461 27.8622 30.5658 24.6494 32.2635 20.3493C32.2635 20.3493 34.8863 19.5202 40.8001 23.5615C43.3321 22.8765 45.9432 22.528 48.5662 22.5251C51.189 22.5251 53.8626 22.8882 56.3316 23.5615C62.2461 19.5202 64.8689 20.3493 64.8689 20.3493C66.5666 24.6494 65.4856 27.8622 65.1773 28.6392C67.1833 30.8149 68.366 33.6126 68.366 37.032C68.366 49.0522 61.1149 51.6941 54.1717 52.4717C55.3034 53.4559 56.2801 55.3208 56.2801 58.2742C56.2801 62.4706 56.2292 65.8386 56.2292 66.8743C56.2292 67.7035 56.7951 68.6883 58.3376 68.3774C70.6804 64.2319 79.5776 52.5232 79.5776 38.6902C79.6284 21.3851 65.6916 7.39697 48.5662 7.39697Z" fill="#24292F"/>
</g>
</svg>
