<svg width="172" height="58" viewBox="0 0 172 58" fill="none" xmlns="http://www.w3.org/2000/svg">
<g id="Group 141">
<path id="Vector" d="M67.7386 11.1797V40.1304L71.4641 40.1588V26.366H80.4508V22.7258H71.4641V14.8199H83.1525V11.1797H67.7386V11.1797ZM89.864 17.0665C91.2006 17.0665 92.3098 15.9858 92.3098 14.6208C92.3098 13.2557 91.2291 12.175 89.864 12.175C88.5274 12.175 87.4183 13.2557 87.4183 14.6208C87.4183 15.9858 88.499 17.0665 89.864 17.0665ZM87.9586 20.7067V40.1588H91.6841V20.7067H87.9586ZM105.505 20.1379C100.557 20.1379 97.1159 24.3184 97.1159 29.2952C97.1159 34.272 100.557 38.4525 105.505 38.4525C107.78 38.4525 109.629 37.5993 110.994 36.1489V38.7369C111.022 41.9504 108.463 44.6237 105.221 44.6521C105.193 44.6521 105.193 44.6521 105.164 44.6521C103.97 44.6521 102.804 44.1971 101.865 43.543L99.9882 46.785C104.425 49.6574 110.34 48.3776 113.184 43.9412C114.179 42.377 114.72 40.5854 114.72 38.7369V20.7351H110.994V22.4699C109.629 21.0195 107.78 20.1379 105.505 20.1379ZM100.841 29.2952C100.841 26.1954 103.202 23.7781 105.932 23.7781C108.662 23.7781 110.994 26.2238 110.994 29.2952C110.994 32.395 108.634 34.7839 105.932 34.7839C103.202 34.7839 100.841 32.3666 100.841 29.2952ZM128.143 23.7781C125.924 23.8065 124.133 25.6266 124.161 27.8448V40.1304H120.436V20.6782H124.161V22.4699C125.299 20.9626 127.062 20.1095 128.967 20.1379C131.584 20.1379 133.603 21.4176 134.74 23.4084C136.049 21.3892 138.267 20.1663 140.656 20.1379C144.893 20.1379 147.538 23.5506 147.538 27.7879V40.1304H143.841V27.8448C143.841 25.6266 142.078 23.8065 139.859 23.7781C137.641 23.8065 135.85 25.6266 135.878 27.8448V40.1304H132.124V27.8448C132.124 25.6266 130.361 23.8065 128.143 23.7781ZM167.388 22.8965C165.682 21.1048 163.293 20.1095 160.819 20.1379C155.273 20.1379 151.349 24.8303 151.349 30.4043C151.349 36.0067 155.273 40.6707 160.819 40.6707C163.293 40.6707 165.653 39.6753 167.388 37.9121V40.1304H171.114V20.6782H167.388V22.8965ZM155.074 30.4043C155.074 26.7073 157.918 23.7496 161.245 23.7496C164.544 23.7781 167.388 26.7073 167.388 30.4043C167.388 34.1013 164.544 37.0305 161.217 37.0305C157.946 37.059 155.074 34.1298 155.074 30.4043Z" fill="black"/>
<path id="b" d="M19.6211 29.1237C19.6211 23.8341 23.9153 19.5398 29.205 19.5398C34.4946 19.5398 38.7888 23.8341 38.7888 29.1237C38.7888 34.4133 34.4946 38.7075 29.205 38.7075C23.9153 38.7075 19.6211 34.4133 19.6211 29.1237Z" fill="#1ABCFE"/>
<path id="c" d="M0.480835 48.264C0.480835 42.9744 4.77509 38.6802 10.0647 38.6802H19.6486V48.264C19.6486 53.5537 15.3543 57.8479 10.0647 57.8479C4.77509 57.8479 0.480835 53.5537 0.480835 48.264Z" fill="#0ACF83"/>
<path id="d" d="M19.6211 0.401243V19.5405H29.205C34.4946 19.5405 38.7888 15.2463 38.7888 9.95668C38.7888 4.66706 34.4946 0.372803 29.205 0.372803H19.6211V0.401243Z" fill="#FF7262"/>
<path id="e" d="M0.480835 9.98501C0.480835 15.2746 4.77509 19.5689 10.0647 19.5689H19.6486V0.429584H10.0647C4.77509 0.401145 0.480835 4.6954 0.480835 9.98501Z" fill="#F24E1E"/>
<path id="e_1_" d="M0.480835 29.1239C0.480835 34.4135 4.77509 38.7078 10.0647 38.7078H19.6486V19.5685H10.0647C4.77509 19.5401 0.480835 23.8343 0.480835 29.1239Z" fill="#A259FF"/>
</g>
</svg>
