<svg width="5" height="115" viewBox="0 0 5 115" fill="none" xmlns="http://www.w3.org/2000/svg">
<path id="Shape" d="M4.40828 202.998C4.40828 204.102 3.51285 204.998 2.40828 204.998C1.30371 204.998 0.408279 204.102 0.408279 202.998L4.40828 202.998ZM0.408279 202.998L0.40828 199.095L4.40828 199.095L4.40828 202.998L0.408279 202.998ZM0.40828 191.29L0.40828 183.485L4.40828 183.485L4.40828 191.29L0.40828 191.29ZM0.408281 175.68L0.408281 167.875L4.40828 167.875L4.40828 175.68L0.408281 175.68ZM0.408281 160.07L0.408282 152.265L4.40828 152.265L4.40828 160.07L0.408281 160.07ZM0.408282 144.46L0.408282 136.655L4.40828 136.655L4.40828 144.46L0.408282 144.46ZM0.408283 128.849L0.408283 121.044L4.40828 121.044L4.40828 128.849L0.408283 128.849ZM0.408283 113.239L0.408284 105.434L4.40828 105.434L4.40828 113.239L0.408283 113.239ZM0.408284 97.6292L0.408284 89.8241L4.40828 89.8241L4.40828 97.6292L0.408284 97.6292ZM0.408285 82.019L0.408285 74.214L4.40829 74.214L4.40828 82.019L0.408285 82.019ZM0.408285 66.4089L0.408286 58.6038L4.40829 58.6038L4.40829 66.4089L0.408285 66.4089ZM0.408286 50.7987L0.408286 42.9937L4.40829 42.9937L4.40829 50.7987L0.408286 50.7987ZM0.408287 35.1886L0.408287 27.3835L4.40829 27.3835L4.40829 35.1886L0.408287 35.1886ZM0.408287 19.5785L0.408288 11.7734L4.40829 11.7734L4.40829 19.5785L0.408287 19.5785ZM0.408288 3.96834L0.408288 0.0658384L4.40829 0.0658386L4.40829 3.96834L0.408288 3.96834Z" fill="#D8DAE6"/>
</svg>
