<svg width="217" height="58" viewBox="0 0 217 58" fill="none" xmlns="http://www.w3.org/2000/svg">
<g id="Illustrator Logotype">
<path id="Element" d="M48.0225 0.844238H10.5776C4.90718 0.844238 0.310425 5.44123 0.310425 11.1119V47.1091C0.310425 52.7798 4.90718 57.3768 10.5776 57.3768H48.0225C53.6929 57.3768 58.2896 52.7798 58.2896 47.1091V11.1119C58.2896 5.44123 53.6929 0.844238 48.0225 0.844238Z" fill="#330000"/>
<g id="Element_2">
<path d="M28.4068 34.7734H19.4222L17.5942 40.4523C17.5693 40.5559 17.509 40.6475 17.4238 40.7114C17.3386 40.7753 17.2338 40.8075 17.1274 40.8024H12.5768C12.3173 40.8024 12.2266 40.6598 12.3046 40.3745L20.0834 17.9702C20.1612 17.7369 20.239 17.4711 20.3168 17.1729C20.4186 16.6539 20.4706 16.1264 20.4724 15.5976C20.4671 15.5606 20.4705 15.5229 20.4823 15.4875C20.4941 15.452 20.5141 15.4198 20.5405 15.3934C20.5669 15.367 20.5991 15.3471 20.6345 15.3353C20.67 15.3234 20.7077 15.32 20.7447 15.3253H26.9288C27.1099 15.3253 27.2137 15.3901 27.2399 15.5198L36.069 40.4134C36.1468 40.6729 36.069 40.8026 35.8356 40.8024H30.7793C30.6925 40.812 30.6051 40.7897 30.5335 40.7396C30.4619 40.6895 30.4111 40.615 30.3904 40.5301L28.4068 34.7734ZM20.8224 29.8725H26.9677C26.8121 29.3541 26.6306 28.7707 26.4232 28.1222C26.2154 27.4743 25.995 26.7807 25.762 26.0412C25.5286 25.3022 25.2952 24.5632 25.0618 23.8241C24.8285 23.0851 24.6146 22.372 24.4201 21.6848C24.2256 20.9981 24.0506 20.3693 23.8951 19.7984H23.8562C23.6372 20.8489 23.3646 21.8875 23.0394 22.9101C22.676 24.077 22.3065 25.2698 21.9309 26.4885C21.5547 27.7077 21.1852 28.8357 20.8224 29.8725Z" fill="#FF9A00"/>
<path d="M41.3268 19.4482C40.9301 19.4641 40.5345 19.3962 40.1659 19.2487C39.7972 19.1012 39.4639 18.8776 39.1876 18.5925C38.9121 18.295 38.6981 17.946 38.5579 17.5655C38.4177 17.185 38.3541 16.7806 38.3707 16.3754C38.3566 15.9743 38.4272 15.5746 38.578 15.2027C38.7288 14.8307 38.9564 14.4947 39.2459 14.2166C39.5325 13.9415 39.8709 13.7259 40.2415 13.5823C40.612 13.4388 41.0073 13.3702 41.4045 13.3804C42.338 13.3804 43.0706 13.6591 43.6021 14.2166C43.8704 14.5064 44.0789 14.8462 44.2157 15.2166C44.3525 15.587 44.415 15.9808 44.3994 16.3754C44.4156 16.7821 44.35 17.188 44.2064 17.5688C44.0627 17.9497 43.844 18.2978 43.5632 18.5925C43.2697 18.8818 42.9195 19.1072 42.5346 19.2545C42.1497 19.4018 41.7384 19.4677 41.3268 19.4482ZM38.643 40.4133V21.8208C38.643 21.5875 38.7463 21.4708 38.9542 21.4708H43.7382C43.9455 21.4708 44.0492 21.5875 44.0494 21.8208V40.4133C44.0494 40.6728 43.9457 40.8025 43.7382 40.8023H38.9931C38.7598 40.8023 38.6431 40.6726 38.643 40.4133Z" fill="#FF9A00"/>
</g>
<g id="Element_3">
<path d="M79.59 19.6505V41.9878C79.59 42.2321 79.5202 42.3019 79.3108 42.3019H75.6461C75.4367 42.3019 75.3669 42.1972 75.3669 41.9878V19.6505C75.3669 19.4062 75.4716 19.3713 75.6461 19.3713H79.3108C79.5202 19.3713 79.59 19.4411 79.59 19.6505Z" fill="#000008"/>
<path d="M84.1856 38.1485V17.7309C84.1856 17.5564 84.2903 17.4517 84.4998 17.4517H88.0947C88.3041 17.4517 88.4088 17.5564 88.4088 17.7309V37.7646C88.4088 38.8466 88.7927 39.1956 89.6304 39.1956C89.9096 39.1956 89.9794 39.1956 90.2935 39.1607C90.3982 39.1258 90.4331 39.1956 90.4331 39.3701V41.9878C90.4331 42.2321 90.3982 42.267 90.2237 42.3717C89.8398 42.5462 89.2115 42.6509 88.2343 42.6509C86.0005 42.6509 84.1856 41.8132 84.1856 38.1485Z" fill="#000008"/>
<path d="M93.4224 38.1485V17.7309C93.4224 17.5564 93.5271 17.4517 93.7365 17.4517H97.3314C97.5408 17.4517 97.6455 17.5564 97.6455 17.7309V37.7646C97.6455 38.8466 98.0295 39.1956 98.8671 39.1956C99.1463 39.1956 99.2161 39.1956 99.5302 39.1607C99.635 39.1258 99.6699 39.1956 99.6699 39.3701V41.9878C99.6699 42.2321 99.635 42.267 99.4604 42.3717C99.0765 42.5462 98.4483 42.6509 97.471 42.6509C95.2373 42.6509 93.4224 41.8132 93.4224 38.1485Z" fill="#000008"/>
<path d="M116.976 25.3395V38.4627C116.976 40.2776 117.115 41.3246 117.185 42.0576C117.22 42.2321 117.115 42.3019 116.906 42.3019H113.695C113.45 42.3019 113.381 42.2321 113.346 42.0925C113.241 41.7434 113.136 41.2199 113.101 40.8709C111.601 42.267 109.821 42.6509 108.25 42.6509C104.934 42.6509 102.386 40.8709 102.386 35.9846V25.3395C102.386 25.1301 102.456 25.0952 102.666 25.0952H106.33C106.54 25.0952 106.575 25.165 106.575 25.3395V35.496C106.575 37.6599 107.517 38.9862 109.611 38.9862C110.937 38.9862 111.915 38.5325 112.787 37.7297V25.3395C112.787 25.165 112.857 25.0952 113.066 25.0952H116.731C116.941 25.0952 116.976 25.165 116.976 25.3395Z" fill="#000008"/>
<path d="M131.412 29.1438C130.33 28.5505 128.585 28.1317 127.05 28.1317C125.2 28.1317 124.572 28.8995 124.572 29.6325C124.572 30.4003 125.095 30.9238 127.329 31.7964C131.308 33.2623 132.669 34.8328 132.669 37.3109C132.669 40.5917 130.086 42.6509 125.793 42.6509C123.734 42.6509 121.919 42.267 120.872 41.6736C120.697 41.5689 120.628 41.4991 120.628 41.2897V37.974C120.628 37.7995 120.767 37.7297 120.907 37.7995C122.408 38.7768 124.327 39.1956 125.898 39.1956C127.713 39.1956 128.585 38.5674 128.585 37.6599C128.585 36.7874 127.922 36.2289 125.758 35.3564C121.954 33.9603 120.593 32.3897 120.593 29.8768C120.593 27.2242 122.757 24.7462 127.119 24.7462C129.144 24.7462 130.679 25.0254 131.517 25.4442C131.692 25.5489 131.727 25.6885 131.727 25.863V28.9344C131.727 29.1089 131.622 29.2136 131.412 29.1438Z" fill="#000008"/>
<path d="M144.228 39.2305V41.7434C144.228 41.9529 144.193 42.0925 144.018 42.1623C143.076 42.5113 142.203 42.6509 141.052 42.6509C138.19 42.6509 136.479 41.2548 136.479 37.7995V28.6203H134.281C134.106 28.5854 134.036 28.5156 134.036 28.3062V25.3744C134.036 25.165 134.106 25.0952 134.316 25.0952H136.514C136.549 23.8736 136.689 21.6748 136.863 20.8022C136.898 20.6277 136.968 20.523 137.143 20.4881L140.668 19.9995C140.842 19.9646 140.912 19.9995 140.912 20.174C140.807 21.3258 140.737 23.385 140.737 25.0952H144.123C144.297 25.0952 144.367 25.165 144.367 25.3395V28.376C144.367 28.5505 144.297 28.6203 144.123 28.6203H140.703V36.8921C140.703 38.4278 141.191 39.1607 142.692 39.1607C143.146 39.1607 143.53 39.1258 144.018 39.0211C144.123 38.9862 144.228 39.0211 144.228 39.2305Z" fill="#000008"/>
<path d="M147.242 25.0952H150.523C150.732 25.0952 150.837 25.165 150.907 25.3744C151.081 25.8281 151.221 26.7007 151.256 27.4685C152.442 26.0026 154.432 24.7462 156.84 24.7462C157.049 24.7462 157.119 24.7811 157.119 24.9905V28.6901C157.119 28.8646 157.049 28.9344 156.805 28.9344C154.327 28.8646 152.268 29.7372 151.465 30.7842V42.0227C151.465 42.2321 151.36 42.3019 151.151 42.3019H147.521C147.277 42.3019 147.207 42.1972 147.207 42.0227V29.9815C147.207 28.4807 147.172 26.4564 147.032 25.3046C147.032 25.1301 147.067 25.0952 147.242 25.0952Z" fill="#000008"/>
<path d="M168.035 38.9164V34.6234C167.511 34.5536 166.918 34.5187 166.115 34.5187C163.358 34.5187 162.136 35.4262 162.136 36.927C162.136 38.2183 163.044 39.3352 165.557 39.3352C166.464 39.3352 167.267 39.2305 168.035 38.9164ZM172.118 31.6568V38.7419C172.118 39.5097 172.118 40.2078 172.188 40.9407C172.188 41.0105 172.188 41.0454 172.118 41.0803C169.256 42.3019 167.232 42.6509 164.859 42.6509C161.054 42.6509 158.018 40.8709 158.018 36.927C158.018 33.2274 161.333 31.3776 165.871 31.3776C166.918 31.3776 167.721 31.4125 168.035 31.4474V31.0285C168.035 30.2258 167.581 28.4109 164.51 28.4109C162.764 28.4109 161.229 28.7599 159.937 29.3881C159.833 29.423 159.658 29.3881 159.658 29.1787V26.1423C159.658 25.9677 159.693 25.8979 159.868 25.7932C161.368 25.0952 163.288 24.7462 165.173 24.7462C170.024 24.7462 172.118 27.7826 172.118 31.6568Z" fill="#000008"/>
<path d="M184.481 39.2305V41.7434C184.481 41.9529 184.446 42.0925 184.271 42.1623C183.329 42.5113 182.457 42.6509 181.305 42.6509C178.443 42.6509 176.733 41.2548 176.733 37.7995V28.6203H174.534C174.359 28.5854 174.289 28.5156 174.289 28.3062V25.3744C174.289 25.165 174.359 25.0952 174.569 25.0952H176.768C176.802 23.8736 176.942 21.6748 177.117 20.8022C177.151 20.6277 177.221 20.523 177.396 20.4881L180.921 19.9995C181.095 19.9646 181.165 19.9995 181.165 20.174C181.06 21.3258 180.991 23.385 180.991 25.0952H184.376C184.551 25.0952 184.62 25.165 184.62 25.3395V28.376C184.62 28.5505 184.551 28.6203 184.376 28.6203H180.956V36.8921C180.956 38.4278 181.444 39.1607 182.945 39.1607C183.399 39.1607 183.783 39.1258 184.271 39.0211C184.376 38.9862 184.481 39.0211 184.481 39.2305Z" fill="#000008"/>
<path d="M194.757 24.7462C200.132 24.7462 203.064 28.8297 203.064 33.6113C203.064 39.0211 199.608 42.6509 194.687 42.6509C188.859 42.6509 186.276 38.1485 186.276 33.716C186.276 28.7599 189.522 24.7462 194.757 24.7462ZM194.548 28.2713C192.209 28.2713 190.534 30.3305 190.534 33.6462C190.534 36.8572 192.104 39.0909 194.757 39.0909C196.921 39.0909 198.771 37.3109 198.771 33.716C198.771 30.8191 197.514 28.2713 194.548 28.2713Z" fill="#000008"/>
<path d="M206.377 25.0952H209.658C209.868 25.0952 209.972 25.165 210.042 25.3744C210.217 25.8281 210.356 26.7007 210.391 27.4685C211.578 26.0026 213.567 24.7462 215.976 24.7462C216.185 24.7462 216.255 24.7811 216.255 24.9905V28.6901C216.255 28.8646 216.185 28.9344 215.941 28.9344C213.463 28.8646 211.403 29.7372 210.601 30.7842V42.0227C210.601 42.2321 210.496 42.3019 210.287 42.3019H206.657C206.412 42.3019 206.343 42.1972 206.343 42.0227V29.9815C206.343 28.4807 206.308 26.4564 206.168 25.3046C206.168 25.1301 206.203 25.0952 206.377 25.0952Z" fill="#000008"/>
</g>
</g>
</svg>
