<svg width="191" height="67" viewBox="0 0 191 67" fill="none" xmlns="http://www.w3.org/2000/svg">
<g id="Notion Logotype">
<path id="Element" d="M4.00877 2.97704L40.5044 0.28347C44.9861 -0.10178 46.1392 0.156272 48.956 2.20706L60.6057 10.4134C62.528 11.8245 63.1688 12.2087 63.1688 13.7471V58.7558C63.1688 61.5766 62.1434 63.2448 58.5589 63.5L16.1768 66.0651C13.4859 66.1936 12.2052 65.8093 10.7961 64.0129L2.21694 52.8572C0.67966 50.8037 0.0404053 49.2675 0.0404053 47.47V7.46335C0.0404053 5.15659 1.06595 3.23247 4.00877 2.97704Z" fill="white"/>
<path id="Element_2" fill-rule="evenodd" clip-rule="evenodd" d="M40.5044 0.28347L4.00877 2.97704C1.06595 3.23247 0.0404053 5.15659 0.0404053 7.46335V47.47C0.0404053 49.2675 0.67966 50.8037 2.21694 52.8572L10.7961 64.0129C12.2052 65.8093 13.4859 66.1936 16.1768 66.0651L58.5589 63.5C62.1434 63.2448 63.1688 61.5766 63.1688 58.7558V13.7471C63.1688 12.289 62.5931 11.8678 60.8961 10.6261C60.8027 10.5578 60.706 10.487 60.6057 10.4134L48.956 2.20706C46.1392 0.156272 44.9861 -0.10178 40.5044 0.28347ZM17.1365 13.0088C13.6766 13.243 12.8904 13.2962 10.9255 11.6963L5.92875 7.72136C5.41913 7.20735 5.67473 6.56617 6.9542 6.43899L42.0383 3.87419C44.9825 3.61717 46.5187 4.64467 47.6718 5.54184L53.6891 9.90201C53.9454 10.0297 54.5844 10.7981 53.816 10.7981L17.5833 12.9787C17.4322 12.9888 17.2859 12.9987 17.144 13.0083L17.1391 13.0087L17.1365 13.0088ZM13.1008 58.3704V20.1597C13.1008 18.4931 13.613 17.7231 15.1486 17.5937L56.7606 15.1583C58.172 15.0301 58.8112 15.9282 58.8112 17.5937V55.5481C58.8112 57.2162 58.5544 58.6288 56.2488 58.7558L16.4291 61.0651C14.1247 61.1921 13.1008 60.424 13.1008 58.3704ZM52.4107 22.2094C52.6661 23.3645 52.4107 24.5187 51.2561 24.6486L49.3374 25.0317V53.2412C47.6718 54.1386 46.1356 54.6517 44.8555 54.6517C42.8062 54.6517 42.2929 54.0101 40.7578 52.0878L28.2081 32.3408V51.4465L32.1793 52.3448C32.1793 52.3448 32.1793 54.6517 28.9754 54.6517L20.1427 55.1652C19.8861 54.6517 20.1427 53.3705 21.0386 53.1136L23.3436 52.4735V27.2123L20.1433 26.9553C19.8866 25.8001 20.5258 24.1345 22.3196 24.0052L31.7951 23.3651L44.8555 43.3689V25.6728L41.5257 25.2897C41.27 23.8775 42.2929 22.8522 43.5735 22.725L52.4107 22.2094Z" fill="#000008"/>
<g id="Element_3">
<path d="M149.188 46.8541H144.814V27.4787H149.188V46.8541Z" fill="#000008"/>
<path d="M149.614 21.6342C149.614 23.1042 148.445 24.2731 146.992 24.2731C145.558 24.2731 144.371 23.1042 144.371 21.6342C144.371 20.1642 145.558 18.9775 146.992 18.9775C148.445 18.9775 149.614 20.1642 149.614 21.6342Z" fill="#000008"/>
<path d="M91.1308 29.4619V46.8538H86.7209V21.2973H90.6882L103.227 38.6715H103.528V21.2973H107.921V46.8538H103.971L91.432 29.4619H91.1308Z" fill="#000008"/>
<path fill-rule="evenodd" clip-rule="evenodd" d="M129.645 37.1662C129.645 43.4534 126.121 47.2435 120.33 47.2435C114.52 47.2435 111.014 43.4534 111.014 37.1662C111.014 30.9143 114.574 27.0888 120.33 27.0888C126.103 27.0888 129.645 30.8966 129.645 37.1662ZM115.512 37.1662C115.512 41.2219 117.266 43.5597 120.33 43.5597C123.394 43.5597 125.129 41.2219 125.129 37.1662C125.129 33.1281 123.376 30.7726 120.33 30.7726C117.266 30.7726 115.512 33.1281 115.512 37.1662Z" fill="#000008"/>
<path d="M133.658 22.7315V27.602H130.594V31.1087H133.658V41.682C133.658 45.4367 135.429 46.9419 139.874 46.9419C140.725 46.9419 141.539 46.8534 142.177 46.7294V43.2935L142.134 43.2978C141.627 43.3486 141.292 43.3821 140.689 43.3821C138.847 43.3821 138.032 42.532 138.032 40.6193V31.1087H142.177V27.602H138.032V22.7315H133.658Z" fill="#000008"/>
<path fill-rule="evenodd" clip-rule="evenodd" d="M161.186 47.2435C166.978 47.2435 170.502 43.4534 170.502 37.1662C170.502 30.8966 166.96 27.0888 161.186 27.0888C155.43 27.0888 151.87 30.9143 151.87 37.1662C151.87 43.4534 155.377 47.2435 161.186 47.2435ZM161.186 43.5597C158.122 43.5597 156.369 41.2219 156.369 37.1662C156.369 33.1281 158.122 30.7726 161.186 30.7726C164.233 30.7726 165.986 33.1281 165.986 37.1662C165.986 41.2219 164.25 43.5597 161.186 43.5597Z" fill="#000008"/>
<path d="M177.509 46.8538H173.117V27.4785H177.35V30.5778H177.651C178.572 28.4171 180.52 27.0888 183.407 27.0888C187.729 27.0888 190.084 29.6923 190.084 34.3147V46.8538H185.692V35.3597C185.692 32.4021 184.452 30.9143 181.777 30.9143C179.156 30.9143 177.509 32.7207 177.509 35.5722V46.8538Z" fill="#000008"/>
</g>
</g>
</svg>
