<svg width="199" height="57" viewBox="0 0 199 57" fill="none" xmlns="http://www.w3.org/2000/svg">
<g id="Shopify">
<path d="M43.3454 10.7155C43.3058 10.4384 43.0683 10.28 42.8703 10.28C42.6724 10.28 38.7531 10.2009 38.7531 10.2009C38.7531 10.2009 35.4672 7.03377 35.1505 6.67747C34.8338 6.36076 34.2004 6.43994 33.9629 6.51912C33.9629 6.51912 33.3294 6.71706 32.3001 7.03377C32.1418 6.47953 31.8647 5.80652 31.5084 5.09393C30.3603 2.87697 28.6184 1.68931 26.5598 1.68931C26.4014 1.68931 26.2827 1.68931 26.1243 1.7289C26.0451 1.64972 26.0055 1.57054 25.9264 1.53095C25.0158 0.580827 23.8678 0.105764 22.4821 0.145353C19.8297 0.22453 17.1773 2.16437 14.9999 5.56899C13.4955 7.9839 12.3475 10.9926 11.9912 13.3284C8.94283 14.2785 6.80504 14.9515 6.72586 14.9515C5.1819 15.4266 5.14231 15.4661 4.94437 16.9309C4.86519 18.0394 0.827148 49.2748 0.827148 49.2748L34.715 55.1339L49.4024 51.4918C49.3629 51.4918 43.385 10.9926 43.3454 10.7155ZM30.5978 7.58801C29.8061 7.82554 28.9351 8.10266 27.985 8.41937C27.985 7.07336 27.787 5.17311 27.1932 3.58956C29.2122 3.90627 30.2019 6.20241 30.5978 7.58801ZM26.2035 8.93402C24.422 9.48827 22.4821 10.0821 20.5423 10.6759C21.0965 8.57773 22.1259 6.51912 23.3927 5.13352C23.8678 4.61887 24.5408 4.06462 25.2929 3.74792C26.0847 5.29187 26.2431 7.46925 26.2035 8.93402ZM22.5613 1.92684C23.1947 1.92684 23.7094 2.04561 24.1449 2.36231C23.4323 2.71861 22.7197 3.27285 22.0863 3.98545C20.3839 5.80652 19.0775 8.61732 18.5629 11.3489C16.9397 11.8636 15.3562 12.3386 13.931 12.7741C14.8811 8.45896 18.4837 2.04561 22.5613 1.92684Z" fill="#95BF47"/>
<path d="M42.8703 10.28C42.6724 10.28 38.7531 10.2009 38.7531 10.2009C38.7531 10.2009 35.4672 7.03377 35.1505 6.67747C35.0318 6.55871 34.8732 6.47949 34.7149 6.47949L34.715 55.1339L49.4024 51.4918C49.4024 51.4918 43.4244 10.9926 43.3848 10.7155C43.3056 10.4384 43.0683 10.28 42.8703 10.28Z" fill="#5E8E3E"/>
<path d="M26.5598 17.8415L24.8575 24.2152C24.8575 24.2152 22.9572 23.3443 20.7007 23.5026C17.3752 23.7006 17.3752 25.7988 17.3752 26.3134C17.5732 29.1638 25.0554 29.7972 25.4909 36.4877C25.8076 41.753 22.7197 45.3556 18.2066 45.6327C12.8225 45.9098 9.85337 42.7427 9.85337 42.7427L11.0014 37.8733C11.0014 37.8733 14.0102 40.1299 16.3855 39.9715C17.9295 39.8923 18.5233 38.5859 18.4441 37.7149C18.2066 33.9936 12.1099 34.2311 11.714 28.0949C11.3973 22.9484 14.7624 17.7623 22.205 17.2872C25.095 17.0893 26.5598 17.8415 26.5598 17.8415Z" fill="white"/>
<path d="M69.2759 31.4204C67.5736 30.5098 66.7027 29.718 66.7027 28.6492C66.7027 27.3031 67.9299 26.4322 69.8302 26.4322C72.0472 26.4322 74.0266 27.3427 74.0266 27.3427L75.5705 22.5921C75.5705 22.5921 74.1454 21.4836 69.949 21.4836C64.0898 21.4836 60.0122 24.8486 60.0122 29.5597C60.0122 32.2517 61.9125 34.2707 64.4461 35.7355C66.5047 36.8836 67.2173 37.7149 67.2173 38.9422C67.2173 40.209 66.188 41.2383 64.2878 41.2383C61.477 41.2383 58.7849 39.7736 58.7849 39.7736L57.1222 44.5242C57.1222 44.5242 59.5767 46.1869 63.7335 46.1869C69.751 46.1869 74.1058 43.2178 74.1058 37.8733C74.0662 34.9833 71.8888 32.9247 69.2759 31.4204Z" fill="#000008"/>
<path d="M93.2667 21.4044C90.2975 21.4044 87.9618 22.8296 86.1803 24.9674L86.1011 24.9278L88.6744 11.4677H81.9839L75.4518 45.7514H82.1423L84.3592 34.0332C85.2302 29.5993 87.5263 26.8677 89.6641 26.8677C91.1685 26.8677 91.7623 27.897 91.7623 29.3617C91.7623 30.2723 91.6831 31.4204 91.4852 32.3309L88.9515 45.7514H95.642L98.2549 31.8954C98.532 30.4306 98.7299 28.6887 98.7299 27.5011C98.7695 23.7006 96.7901 21.4044 93.2667 21.4044Z" fill="#000008"/>
<path d="M113.932 21.4043C105.856 21.4043 100.512 28.6886 100.512 36.8043C100.512 41.9904 103.718 46.1868 109.736 46.1868C117.653 46.1868 122.998 39.1004 122.998 30.7868C123.037 25.9966 120.227 21.4043 113.932 21.4043ZM110.646 41.0798C108.35 41.0798 107.4 39.14 107.4 36.6855C107.4 32.8454 109.379 26.5904 113.022 26.5904C115.397 26.5904 116.189 28.649 116.189 30.6284C116.189 34.7456 114.17 41.0798 110.646 41.0798Z" fill="#000008"/>
<path d="M140.179 21.4043C135.666 21.4043 133.093 25.4027 133.093 25.4027H133.014L133.41 21.8002H127.471C127.194 24.2151 126.64 27.9364 126.125 30.7076L121.454 55.2525H128.144L130.005 45.3158H130.163C130.163 45.3158 131.549 46.1868 134.083 46.1868C141.961 46.1868 147.107 38.1107 147.107 29.9554C147.107 25.4423 145.088 21.4043 140.179 21.4043ZM133.766 41.159C132.024 41.159 130.995 40.1693 130.995 40.1693L132.103 33.9143C132.895 29.7179 135.072 26.9467 137.408 26.9467C139.467 26.9467 140.1 28.8469 140.1 30.6284C140.1 34.9832 137.527 41.159 133.766 41.159Z" fill="#000008"/>
<path d="M156.688 11.7844C154.55 11.7844 152.848 13.4867 152.848 15.6641C152.848 17.6435 154.114 19.0291 156.015 19.0291H156.094C158.192 19.0291 159.974 17.6039 160.013 15.1494C160.013 13.2096 158.707 11.7844 156.688 11.7844Z" fill="#000008"/>
<path d="M147.305 45.7118H153.996L158.548 21.9587H151.818L147.305 45.7118Z" fill="#000008"/>
<path d="M175.611 21.9191H170.94L171.177 20.8106C171.573 18.5145 172.919 16.4955 175.176 16.4955C176.363 16.4955 177.313 16.8517 177.313 16.8517L178.62 11.5865C178.62 11.5865 177.472 10.9926 174.978 10.9926C172.602 10.9926 170.227 11.6656 168.406 13.2096C166.11 15.1494 165.041 17.9602 164.526 20.8106L164.328 21.9191H161.201L160.211 26.9864H163.339L159.776 45.7514H166.466L170.029 26.9864H174.661L175.611 21.9191Z" fill="#000008"/>
<path d="M191.763 21.9587C191.763 21.9587 187.567 32.5288 185.706 38.3088H185.627C185.508 36.4481 183.964 21.9587 183.964 21.9587H176.918L180.956 43.772C181.035 44.2471 180.995 44.5638 180.797 44.8805C180.006 46.3849 178.699 47.8496 177.155 48.9185C175.888 49.8291 174.463 50.4229 173.355 50.8188L175.215 56.5195C176.561 56.2424 179.412 55.0943 181.787 52.8774C184.835 50.027 187.686 45.5931 190.576 39.5756L198.771 21.9587H191.763Z" fill="#000008"/>
</g>
</svg>
