<svg width="46" height="42" viewBox="0 0 46 42" fill="none" xmlns="http://www.w3.org/2000/svg">
<g id="Vector" filter="url(#filter0_d_1837_2385)">
<path d="M6.36888 7.15816L39.903 1.36894C40.1115 1.33291 40.2839 1.55668 40.1898 1.74119L24.9433 31.6503C24.8411 31.8509 24.5344 31.8042 24.4713 31.5783L20.0506 15.772C20.0318 15.7047 19.9864 15.6464 19.925 15.6103L6.30904 7.62031C6.10227 7.49885 6.14134 7.19751 6.36888 7.15816Z" fill="url(#paint0_linear_1837_2385)"/>
<path d="M6.36888 7.15816L39.903 1.36894C40.1115 1.33291 40.2839 1.55668 40.1898 1.74119L24.9433 31.6503C24.8411 31.8509 24.5344 31.8042 24.4713 31.5783L20.0506 15.772C20.0318 15.7047 19.9864 15.6464 19.925 15.6103L6.30904 7.62031C6.10227 7.49885 6.14134 7.19751 6.36888 7.15816Z" stroke="url(#paint1_linear_1837_2385)" stroke-width="2.60568"/>
</g>
<defs>
<filter id="filter0_d_1837_2385" x="0.87088" y="0.0610352" width="44.6531" height="41.02" filterUnits="userSpaceOnUse" color-interpolation-filters="sRGB">
<feFlood flood-opacity="0" result="BackgroundImageFix"/>
<feColorMatrix in="SourceAlpha" type="matrix" values="0 0 0 0 0 0 0 0 0 0 0 0 0 0 0 0 0 0 127 0" result="hardAlpha"/>
<feOffset dy="4"/>
<feGaussianBlur stdDeviation="2"/>
<feComposite in2="hardAlpha" operator="out"/>
<feColorMatrix type="matrix" values="0 0 0 0 0.121569 0 0 0 0 0.133333 0 0 0 0 0.152941 0 0 0 0.08 0"/>
<feBlend mode="normal" in2="BackgroundImageFix" result="effect1_dropShadow_1837_2385"/>
<feBlend mode="normal" in="SourceGraphic" in2="effect1_dropShadow_1837_2385" result="shape"/>
</filter>
<linearGradient id="paint0_linear_1837_2385" x1="23.8358" y1="31.7415" x2="25.0812" y2="0.767147" gradientUnits="userSpaceOnUse">
<stop stop-color="#FF4343"/>
<stop offset="1" stop-color="#FF511A"/>
</linearGradient>
<linearGradient id="paint1_linear_1837_2385" x1="23.8358" y1="31.7415" x2="25.0812" y2="0.767147" gradientUnits="userSpaceOnUse">
<stop stop-color="#FCFCFC"/>
<stop offset="1" stop-color="#D5D5D5"/>
</linearGradient>
</defs>
</svg>
