<svg width="180" height="46" viewBox="0 0 180 46" fill="none" xmlns="http://www.w3.org/2000/svg">
<path id="Webflow Logotype" d="M58.0621 18.1829C58.0621 14.9572 54.9254 11.5313 49.4973 11.5313C43.4019 11.5313 36.7059 16.0027 35.6826 24.9234C34.637 33.933 40.243 37.9373 45.8935 37.9373C51.544 37.9373 54.5027 35.7349 57.5282 32.7984C54.9254 29.5283 51.5662 31.041 50.9211 31.3747C50.2092 31.7306 49.2971 32.2201 47.4285 32.2201C45.2484 32.2201 43.0238 31.2412 43.0238 27.1702C56.9942 25.791 58.0621 21.4085 58.0621 18.1829ZM51.1435 18.7168C51.0546 19.7178 50.6541 21.4308 43.5799 22.3873C45.0704 17.0928 47.9179 16.6924 49.2304 16.6924C50.4539 16.6924 51.2325 17.6489 51.1435 18.7168ZM27.4738 19.5843C27.4738 19.5843 24.4706 29.0166 24.2259 29.7952C24.1369 28.9944 21.9346 12.0652 21.9346 12.0652C16.818 12.0652 14.0817 15.7136 12.6357 19.5621C12.6357 19.5621 8.98738 29.0166 8.67594 29.8175C8.65369 29.0834 8.11979 19.6733 8.11979 19.6733C7.80835 14.9572 3.49262 12.0875 0 12.0875L4.22674 37.7371C9.58803 37.7148 12.48 34.0887 13.9927 30.2402C13.9927 30.2402 17.2184 21.8979 17.3519 21.5197C17.3741 21.8757 19.6655 37.7371 19.6655 37.7371C25.049 37.7371 27.941 34.3334 29.4982 30.6183L37.0396 12.0875C31.7228 12.0875 28.9198 15.7136 27.4738 19.5843ZM77.8165 11.4868C74.5018 11.4868 71.9658 13.2887 69.8302 15.936V15.9138L71.7433 0.497314C67.3386 0.497314 63.757 4.32362 63.0674 10.0186L59.7305 37.5368C62.2666 37.5368 64.9583 36.8027 66.4043 34.9341C67.6946 36.6025 69.63 37.9373 72.4997 37.9373C79.9299 37.9373 85.0242 29.3058 85.0242 21.2083C84.9797 13.8226 81.3981 11.4868 77.8165 11.4868ZM77.1269 24.7232C76.3483 29.2391 73.8345 32.309 71.4097 32.309C68.9626 32.309 67.917 31.219 67.917 31.219C68.3842 27.2592 68.6734 24.8344 69.5632 22.7433C70.4531 20.6522 72.5664 17.3153 74.7688 17.3153C76.9267 17.3153 77.9055 20.185 77.1269 24.7232ZM103.577 12.0875H98.394L98.4163 11.8205C98.7722 8.43912 99.5731 6.65945 102.22 6.37025C104.022 6.19228 104.823 5.25795 105.023 4.23464C105.179 3.43378 105.668 0.653036 105.668 0.653036C95.2574 0.586298 91.9872 5.07998 91.1419 11.9317L91.1196 12.0875H91.0084C89.3177 12.0875 87.449 14.0006 87.1376 16.4254L87.0263 17.3153H90.4967L87.5825 41.3854L86.6927 45.7011C86.8039 45.7011 86.9374 45.7234 87.0486 45.7234C91.9205 45.5454 95.0349 41.6968 95.7245 36.1131L97.9936 17.3153H99.6176C101.219 17.3153 103.088 15.7136 103.422 13.044L103.577 12.0875ZM130.54 11.6425C124.555 11.6425 118.905 16.0472 117.17 22.9657C115.434 29.8842 118.06 38.0707 126.869 38.0707C135.656 38.0707 140.728 29.5505 140.728 22.4541C140.728 15.4021 135.945 11.6425 130.54 11.6425ZM132.964 24.5007C132.653 27.6374 131.274 32.398 127.492 32.398C123.688 32.398 124.222 26.8365 124.6 24.1893C125 21.364 126.58 17.3375 129.983 17.3375C133.031 17.3375 133.32 20.9636 132.964 24.5007ZM170.293 19.5843C170.293 19.5843 167.29 29.0166 167.045 29.7952C166.956 28.9944 164.754 12.0652 164.754 12.0652C159.637 12.0652 156.901 15.7136 155.455 19.5621C155.455 19.5621 151.807 29.0166 151.495 29.8175C151.473 29.0834 150.939 19.6733 150.939 19.6733C150.628 14.9572 146.312 12.0875 142.819 12.0875L147.024 37.7371C152.385 37.7148 155.277 34.0887 156.79 30.2402C156.79 30.2402 160.015 21.8979 160.127 21.5197C160.149 21.8757 162.44 37.7371 162.44 37.7371C167.824 37.7371 170.716 34.3334 172.273 30.6183L179.814 12.0875C174.52 12.0875 171.717 15.7136 170.293 19.5843ZM108.471 0.653036L104.111 35.8239L103.221 40.1619C103.333 40.1619 103.466 40.1841 103.577 40.1841C108.271 40.1174 111.608 36.0019 112.231 30.8186L114.745 10.6415C115.501 4.47934 111.831 0.653036 108.471 0.653036Z" fill="#4353FF"/>
</svg>
