<svg width="232" height="48" viewBox="0 0 232 48" fill="none" xmlns="http://www.w3.org/2000/svg">
<g id="Wordpress Logotype">
<path d="M132.359 34.065H131.992C130.108 34.065 129.847 33.5939 129.847 31.1861V19.8282H132.359C137.802 19.8282 138.797 23.8056 138.797 26.8941C138.797 30.087 137.802 34.065 132.359 34.065ZM110.271 26.789V19.8282H112.417C114.772 19.8282 115.819 21.4504 115.819 23.3346C115.819 25.1668 114.772 26.789 112.417 26.789H110.271ZM132.202 18.2581H122.833V19.252C125.764 19.252 126.235 19.8802 126.235 23.5967V30.2966C126.235 34.0125 125.764 34.693 122.833 34.693C120.583 34.3791 119.064 33.1749 116.971 30.872L114.563 28.2553C117.808 27.6791 119.535 25.6379 119.535 23.3346C119.535 20.4563 117.076 18.2581 112.469 18.2581H103.257V19.252C106.188 19.252 106.659 19.8802 106.659 23.5967V30.2966C106.659 34.0125 106.188 34.693 103.257 34.693V35.6872H113.673V34.693C110.742 34.693 110.271 34.0125 110.271 30.2966V28.4123H111.161L116.971 35.6872H132.202C139.687 35.6872 142.932 31.7097 142.932 26.946C142.932 22.1834 139.687 18.2581 132.202 18.2581Z" fill="#32373C"/>
<path d="M74.1023 28.7262L77.7138 18.0477C78.7609 14.96 78.2898 14.0703 74.94 14.0703V13.0232H84.7802V14.0703C81.4828 14.0703 80.6977 14.8555 79.3891 18.6764L73.4216 36.5771H72.7416L67.4025 20.1941L61.9593 36.5771H61.2787L55.4691 18.6764C54.2128 14.8555 53.3752 14.0703 50.3393 14.0703V13.0232H61.9593V14.0703C58.8709 14.0703 58.0333 14.8029 59.133 18.0477L62.6393 28.7262L67.926 13.0232H68.9207L74.1023 28.7262Z" fill="#32373C"/>
<path d="M91.8979 19.2011C87.083 19.2011 85.4077 23.5451 85.4077 26.9469C85.4077 30.402 87.083 34.694 91.8979 34.694C96.7662 34.694 98.4409 30.402 98.4409 26.9469C98.4409 23.5451 96.7662 19.2011 91.8979 19.2011ZM91.8979 36.3687C86.1409 36.3687 81.4297 32.1292 81.4297 26.9469C81.4297 21.8179 86.1409 17.5778 91.8979 17.5778C97.6557 17.5778 102.366 21.8179 102.366 26.9469C102.366 32.1292 97.6557 36.3687 91.8979 36.3687Z" fill="#32373C"/>
<path d="M154.706 14.9076H151.723V24.0153H154.706C157.637 24.0153 158.998 21.974 158.998 19.5143C158.998 17.002 157.637 14.9076 154.706 14.9076ZM155.858 34.6406V35.6872H143.872V34.6406C147.379 34.6406 148.007 33.7511 148.007 28.5163V20.1423C148.007 14.9076 147.379 14.0706 143.872 14.0706V13.0233H154.706C160.097 13.0233 163.081 15.7978 163.081 19.5143C163.081 23.1258 160.097 25.9521 154.706 25.9521H151.723V28.5163C151.723 33.7511 152.351 34.6406 155.858 34.6406Z" fill="#32373C"/>
<path d="M171.299 26.7896V19.8288H173.445C175.8 19.8288 176.847 21.4509 176.847 23.3352C176.847 25.1674 175.8 26.7896 173.445 26.7896H171.299ZM199.039 30.7682L198.777 31.7103C198.306 33.4376 197.73 34.0656 194.014 34.0656H193.281C190.56 34.0656 190.089 33.4376 190.089 29.721V27.3138C194.171 27.3138 194.485 27.6797 194.485 30.4016H195.48V22.6026H194.485C194.485 25.3244 194.171 25.6905 190.089 25.6905V19.8288H192.967C196.683 19.8288 197.259 20.4569 197.73 22.184L197.992 23.178H198.829L198.463 18.2587H183.075V19.2527C186.006 19.2527 186.476 19.8807 186.476 23.5973V30.2971C186.476 33.6966 186.076 34.5529 183.765 34.6749C181.569 34.3397 180.061 33.1416 177.998 30.8726L175.59 28.2558C178.836 27.6797 180.563 25.6385 180.563 23.3352C180.563 20.4569 178.103 18.2587 173.497 18.2587H164.285V19.2527C167.216 19.2527 167.687 19.8807 167.687 23.5973V30.2971C167.687 34.013 167.216 34.6936 164.285 34.6936V35.6877H174.701V34.6936C171.77 34.6936 171.299 34.013 171.299 30.2971V28.4129H172.188L177.998 35.6877H199.51L199.824 30.7682H199.039Z" fill="#32373C"/>
<path d="M209.666 36.3687C207.572 36.3687 205.74 35.2696 204.954 34.589C204.693 34.8511 204.222 35.6362 204.117 36.3687H203.123V29.1458H204.169C204.589 32.6003 206.996 34.6415 210.084 34.6415C211.759 34.6415 213.12 33.6994 213.12 32.1292C213.12 30.7686 211.916 29.7213 209.77 28.7273L206.787 27.3141C204.693 26.3189 203.123 24.5917 203.123 22.289C203.123 19.7767 205.478 17.6309 208.724 17.6309C210.451 17.6309 211.916 18.259 212.806 18.9915C213.067 18.782 213.329 18.2058 213.487 17.5778H214.481V23.7547H213.381C213.015 21.2944 211.654 19.2531 208.881 19.2531C207.415 19.2531 206.054 20.0908 206.054 21.3994C206.054 22.7601 207.153 23.4926 209.666 24.6442L212.544 26.0574C215.057 27.261 216.051 29.1984 216.051 30.7686C216.051 34.066 213.172 36.3687 209.666 36.3687Z" fill="#32373C"/>
<path d="M225.494 36.3687C223.401 36.3687 221.568 35.2696 220.783 34.589C220.522 34.8511 220.051 35.6362 219.946 36.3687H218.951V29.1458H219.998C220.417 32.6003 222.824 34.6415 225.913 34.6415C227.587 34.6415 228.949 33.6994 228.949 32.1292C228.949 30.7686 227.745 29.7213 225.599 28.7273L222.615 27.3141C220.522 26.3189 218.951 24.5917 218.951 22.289C218.951 19.7767 221.307 17.6309 224.552 17.6309C226.279 17.6309 227.745 18.259 228.635 18.9915C228.896 18.782 229.158 18.2058 229.315 17.5778H230.309V23.7547H229.21C228.844 21.2944 227.483 19.2531 224.709 19.2531C223.244 19.2531 221.882 20.0908 221.882 21.3994C221.882 22.7601 222.981 23.4926 225.494 24.6442L228.373 26.0574C230.885 27.261 231.88 29.1984 231.88 30.7686C231.88 34.066 229.001 36.3687 225.494 36.3687Z" fill="#32373C"/>
<path d="M24.4337 0.775391C11.4251 0.775391 0.879608 11.3209 0.879608 24.3295C0.879608 37.338 11.4251 47.8835 24.4337 47.8835C37.4423 47.8835 47.9878 37.338 47.9878 24.3295C47.9878 11.3209 37.4423 0.775391 24.4337 0.775391ZM24.4337 2.18857C27.4233 2.18857 30.3228 2.7739 33.0514 3.92804C34.3631 4.4828 35.6283 5.16945 36.8118 5.96908C37.9845 6.76134 39.0874 7.67131 40.0896 8.67355C41.0919 9.67579 42.0017 10.7787 42.794 11.9513C43.5936 13.1349 44.2804 14.4 44.8351 15.7116C45.9893 18.4404 46.5745 21.3399 46.5745 24.3295C46.5745 27.319 45.9893 30.2184 44.8351 32.9472C44.2804 34.2588 43.5936 35.524 42.794 36.7076C42.0017 37.8802 41.0919 38.9831 40.0896 39.9853C39.0874 40.9876 37.9845 41.8975 36.8118 42.6898C35.6283 43.4894 34.3631 44.1761 33.0514 44.7308C30.3228 45.885 27.4233 46.4703 24.4337 46.4703C21.4441 46.4703 18.5446 45.885 15.816 44.7308C14.5044 44.1761 13.2391 43.4894 12.0556 42.6898C10.8829 41.8975 9.78 40.9876 8.77776 39.9853C7.77552 38.9831 6.86569 37.8802 6.07343 36.7076C5.2738 35.524 4.58702 34.2588 4.03225 32.9472C2.87812 30.2184 2.29292 27.319 2.29292 24.3295C2.29292 21.3399 2.87812 18.4404 4.03225 15.7116C4.58702 14.4 5.2738 13.1349 6.07343 11.9513C6.86569 10.7787 7.77552 9.67579 8.77776 8.67355C9.78 7.67131 10.8829 6.76134 12.0556 5.96908C13.2391 5.16945 14.5044 4.4828 15.816 3.92804C18.5446 2.7739 21.4441 2.18857 24.4337 2.18857Z" fill="#32373C"/>
<path d="M41.6569 14.9122C41.7412 15.5373 41.789 16.208 41.789 16.9305C41.789 18.9215 41.4158 21.1605 40.2959 23.9606L34.3009 41.2938C40.1365 37.8917 44.0608 31.5697 44.0608 24.3285C44.0608 20.9158 43.1887 17.7077 41.6569 14.9122ZM24.7773 26.0453L18.8872 43.1578C20.6463 43.6753 22.5058 43.9575 24.4325 43.9575C26.7182 43.9575 28.9109 43.563 30.9509 42.8447C30.8984 42.7607 30.85 42.6715 30.81 42.5742L24.7773 26.0453ZM37.6831 23.3386C37.6831 20.9119 36.8115 19.2325 36.0651 17.9255C35.07 16.3079 34.1369 14.9393 34.1369 13.3218C34.1369 11.5178 35.5051 9.83832 37.4331 9.83832C37.5203 9.83832 37.6027 9.84874 37.6873 9.85416C34.1952 6.6544 29.5423 4.70078 24.4325 4.70078C17.5748 4.70078 11.5421 8.21947 8.03235 13.5475C8.49331 13.5621 8.92745 13.5713 9.29558 13.5713C11.3483 13.5713 14.5271 13.3218 14.5271 13.3218C15.5846 13.2599 15.7097 14.8144 14.6525 14.9393C14.6525 14.9393 13.5889 15.064 12.4063 15.1258L19.5537 36.3869L23.8498 23.5045L20.7919 15.1258C19.7344 15.064 18.7332 14.9393 18.7332 14.9393C17.6751 14.8769 17.7991 13.2599 18.8577 13.3218C18.8577 13.3218 22.0985 13.5713 24.0271 13.5713C26.0797 13.5713 29.2591 13.3218 29.2591 13.3218C30.3171 13.2599 30.4416 14.8144 29.3841 14.9393C29.3841 14.9393 28.3194 15.064 27.1378 15.1258L34.2313 36.225L36.2562 29.8088C37.1558 27.0047 37.6831 25.018 37.6831 23.3386ZM4.80411 24.3285C4.80411 32.0974 9.31865 38.8119 15.867 41.9932L6.5037 16.3404C5.4146 18.7814 4.80411 21.4828 4.80411 24.3285Z" fill="#32373C"/>
</g>
</svg>
